<?xml version="1.0" encoding="utf-8" standalone="no"?>
<!DOCTYPE svg PUBLIC "-//W3C//DTD SVG 1.1//EN"
  "http://www.w3.org/Graphics/SVG/1.1/DTD/svg11.dtd">
<svg xmlns:xlink="http://www.w3.org/1999/xlink" width="864pt" height="151.2pt" viewBox="0 0 864 151.2" xmlns="http://www.w3.org/2000/svg" version="1.1">
 <metadata>
  <rdf:RDF xmlns:dc="http://purl.org/dc/elements/1.1/" xmlns:cc="http://creativecommons.org/ns#" xmlns:rdf="http://www.w3.org/1999/02/22-rdf-syntax-ns#">
   <cc:Work>
    <dc:type rdf:resource="http://purl.org/dc/dcmitype/StillImage"/>
    <dc:date>2023-05-21T17:57:31.863823</dc:date>
    <dc:format>image/svg+xml</dc:format>
    <dc:creator>
     <cc:Agent>
      <dc:title>Matplotlib v3.7.1, https://matplotlib.org/</dc:title>
     </cc:Agent>
    </dc:creator>
   </cc:Work>
  </rdf:RDF>
 </metadata>
 <defs>
  <style type="text/css">*{stroke-linejoin: round; stroke-linecap: butt}</style>
 </defs>
 <g id="figure_1">
  <g id="patch_1">
   <path d="M 0 151.2 
L 864 151.2 
L 864 0 
L 0 0 
z
" style="fill: #ffffff"/>
  </g>
  <g id="axes_1">
   <g id="patch_2">
    <path d="M 54.18 111.3975 
L 432 111.3975 
L 432 30.24 
L 54.18 30.24 
z
" style="fill: #eaeaf2"/>
   </g>
   <g id="matplotlib.axis_1">
    <g id="xtick_1">
     <g id="line2d_1">
      <path d="M 85.665 111.3975 
L 85.665 30.24 
" clip-path="url(#p0a9f447f97)" style="fill: none; stroke: #ffffff; stroke-linecap: round"/>
     </g>
     <g id="text_1">
      <!-- −8 -->
      <g style="fill: #262626" transform="translate(77.556797 129.255781) scale(0.11 -0.11)">
       <defs>
        <path id="DejaVuSans-2212" d="M 678 2272 
L 4684 2272 
L 4684 1741 
L 678 1741 
L 678 2272 
z
" transform="scale(0.015625)"/>
        <path id="DejaVuSans-38" d="M 2034 2216 
Q 1584 2216 1326 1975 
Q 1069 1734 1069 1313 
Q 1069 891 1326 650 
Q 1584 409 2034 409 
Q 2484 409 2743 651 
Q 3003 894 3003 1313 
Q 3003 1734 2745 1975 
Q 2488 2216 2034 2216 
z
M 1403 2484 
Q 997 2584 770 2862 
Q 544 3141 544 3541 
Q 544 4100 942 4425 
Q 1341 4750 2034 4750 
Q 2731 4750 3128 4425 
Q 3525 4100 3525 3541 
Q 3525 3141 3298 2862 
Q 3072 2584 2669 2484 
Q 3125 2378 3379 2068 
Q 3634 1759 3634 1313 
Q 3634 634 3220 271 
Q 2806 -91 2034 -91 
Q 1263 -91 848 271 
Q 434 634 434 1313 
Q 434 1759 690 2068 
Q 947 2378 1403 2484 
z
M 1172 3481 
Q 1172 3119 1398 2916 
Q 1625 2713 2034 2713 
Q 2441 2713 2670 2916 
Q 2900 3119 2900 3481 
Q 2900 3844 2670 4047 
Q 2441 4250 2034 4250 
Q 1625 4250 1398 4047 
Q 1172 3844 1172 3481 
z
" transform="scale(0.015625)"/>
       </defs>
       <use xlink:href="#DejaVuSans-2212"/>
       <use xlink:href="#DejaVuSans-38" x="83.789062"/>
      </g>
     </g>
    </g>
    <g id="xtick_2">
     <g id="line2d_2">
      <path d="M 148.635 111.3975 
L 148.635 30.24 
" clip-path="url(#p0a9f447f97)" style="fill: none; stroke: #ffffff; stroke-linecap: round"/>
     </g>
     <g id="text_2">
      <!-- −6 -->
      <g style="fill: #262626" transform="translate(140.526797 129.255781) scale(0.11 -0.11)">
       <defs>
        <path id="DejaVuSans-36" d="M 2113 2584 
Q 1688 2584 1439 2293 
Q 1191 2003 1191 1497 
Q 1191 994 1439 701 
Q 1688 409 2113 409 
Q 2538 409 2786 701 
Q 3034 994 3034 1497 
Q 3034 2003 2786 2293 
Q 2538 2584 2113 2584 
z
M 3366 4563 
L 3366 3988 
Q 3128 4100 2886 4159 
Q 2644 4219 2406 4219 
Q 1781 4219 1451 3797 
Q 1122 3375 1075 2522 
Q 1259 2794 1537 2939 
Q 1816 3084 2150 3084 
Q 2853 3084 3261 2657 
Q 3669 2231 3669 1497 
Q 3669 778 3244 343 
Q 2819 -91 2113 -91 
Q 1303 -91 875 529 
Q 447 1150 447 2328 
Q 447 3434 972 4092 
Q 1497 4750 2381 4750 
Q 2619 4750 2861 4703 
Q 3103 4656 3366 4563 
z
" transform="scale(0.015625)"/>
       </defs>
       <use xlink:href="#DejaVuSans-2212"/>
       <use xlink:href="#DejaVuSans-36" x="83.789062"/>
      </g>
     </g>
    </g>
    <g id="xtick_3">
     <g id="line2d_3">
      <path d="M 211.605 111.3975 
L 211.605 30.24 
" clip-path="url(#p0a9f447f97)" style="fill: none; stroke: #ffffff; stroke-linecap: round"/>
     </g>
     <g id="text_3">
      <!-- −4 -->
      <g style="fill: #262626" transform="translate(203.496797 129.255781) scale(0.11 -0.11)">
       <defs>
        <path id="DejaVuSans-34" d="M 2419 4116 
L 825 1625 
L 2419 1625 
L 2419 4116 
z
M 2253 4666 
L 3047 4666 
L 3047 1625 
L 3713 1625 
L 3713 1100 
L 3047 1100 
L 3047 0 
L 2419 0 
L 2419 1100 
L 313 1100 
L 313 1709 
L 2253 4666 
z
" transform="scale(0.015625)"/>
       </defs>
       <use xlink:href="#DejaVuSans-2212"/>
       <use xlink:href="#DejaVuSans-34" x="83.789062"/>
      </g>
     </g>
    </g>
    <g id="xtick_4">
     <g id="line2d_4">
      <path d="M 274.575 111.3975 
L 274.575 30.24 
" clip-path="url(#p0a9f447f97)" style="fill: none; stroke: #ffffff; stroke-linecap: round"/>
     </g>
     <g id="text_4">
      <!-- −2 -->
      <g style="fill: #262626" transform="translate(266.466797 129.255781) scale(0.11 -0.11)">
       <defs>
        <path id="DejaVuSans-32" d="M 1228 531 
L 3431 531 
L 3431 0 
L 469 0 
L 469 531 
Q 828 903 1448 1529 
Q 2069 2156 2228 2338 
Q 2531 2678 2651 2914 
Q 2772 3150 2772 3378 
Q 2772 3750 2511 3984 
Q 2250 4219 1831 4219 
Q 1534 4219 1204 4116 
Q 875 4013 500 3803 
L 500 4441 
Q 881 4594 1212 4672 
Q 1544 4750 1819 4750 
Q 2544 4750 2975 4387 
Q 3406 4025 3406 3419 
Q 3406 3131 3298 2873 
Q 3191 2616 2906 2266 
Q 2828 2175 2409 1742 
Q 1991 1309 1228 531 
z
" transform="scale(0.015625)"/>
       </defs>
       <use xlink:href="#DejaVuSans-2212"/>
       <use xlink:href="#DejaVuSans-32" x="83.789062"/>
      </g>
     </g>
    </g>
    <g id="xtick_5">
     <g id="line2d_5">
      <path d="M 337.545 111.3975 
L 337.545 30.24 
" clip-path="url(#p0a9f447f97)" style="fill: none; stroke: #ffffff; stroke-linecap: round"/>
     </g>
     <g id="text_5">
      <!-- 0 -->
      <g style="fill: #262626" transform="translate(334.045625 129.255781) scale(0.11 -0.11)">
       <defs>
        <path id="DejaVuSans-30" d="M 2034 4250 
Q 1547 4250 1301 3770 
Q 1056 3291 1056 2328 
Q 1056 1369 1301 889 
Q 1547 409 2034 409 
Q 2525 409 2770 889 
Q 3016 1369 3016 2328 
Q 3016 3291 2770 3770 
Q 2525 4250 2034 4250 
z
M 2034 4750 
Q 2819 4750 3233 4129 
Q 3647 3509 3647 2328 
Q 3647 1150 3233 529 
Q 2819 -91 2034 -91 
Q 1250 -91 836 529 
Q 422 1150 422 2328 
Q 422 3509 836 4129 
Q 1250 4750 2034 4750 
z
" transform="scale(0.015625)"/>
       </defs>
       <use xlink:href="#DejaVuSans-30"/>
      </g>
     </g>
    </g>
    <g id="xtick_6">
     <g id="line2d_6">
      <path d="M 400.515 111.3975 
L 400.515 30.24 
" clip-path="url(#p0a9f447f97)" style="fill: none; stroke: #ffffff; stroke-linecap: round"/>
     </g>
     <g id="text_6">
      <!-- 2 -->
      <g style="fill: #262626" transform="translate(397.015625 129.255781) scale(0.11 -0.11)">
       <use xlink:href="#DejaVuSans-32"/>
      </g>
     </g>
    </g>
    <g id="text_7">
     <!-- log$_{10}$(|energy_us - energy_pyscf)|) -->
     <g style="fill: #262626" transform="translate(140.43 144.783438) scale(0.12 -0.12)">
      <defs>
       <path id="DejaVuSans-6c" d="M 603 4863 
L 1178 4863 
L 1178 0 
L 603 0 
L 603 4863 
z
" transform="scale(0.015625)"/>
       <path id="DejaVuSans-6f" d="M 1959 3097 
Q 1497 3097 1228 2736 
Q 959 2375 959 1747 
Q 959 1119 1226 758 
Q 1494 397 1959 397 
Q 2419 397 2687 759 
Q 2956 1122 2956 1747 
Q 2956 2369 2687 2733 
Q 2419 3097 1959 3097 
z
M 1959 3584 
Q 2709 3584 3137 3096 
Q 3566 2609 3566 1747 
Q 3566 888 3137 398 
Q 2709 -91 1959 -91 
Q 1206 -91 779 398 
Q 353 888 353 1747 
Q 353 2609 779 3096 
Q 1206 3584 1959 3584 
z
" transform="scale(0.015625)"/>
       <path id="DejaVuSans-67" d="M 2906 1791 
Q 2906 2416 2648 2759 
Q 2391 3103 1925 3103 
Q 1463 3103 1205 2759 
Q 947 2416 947 1791 
Q 947 1169 1205 825 
Q 1463 481 1925 481 
Q 2391 481 2648 825 
Q 2906 1169 2906 1791 
z
M 3481 434 
Q 3481 -459 3084 -895 
Q 2688 -1331 1869 -1331 
Q 1566 -1331 1297 -1286 
Q 1028 -1241 775 -1147 
L 775 -588 
Q 1028 -725 1275 -790 
Q 1522 -856 1778 -856 
Q 2344 -856 2625 -561 
Q 2906 -266 2906 331 
L 2906 616 
Q 2728 306 2450 153 
Q 2172 0 1784 0 
Q 1141 0 747 490 
Q 353 981 353 1791 
Q 353 2603 747 3093 
Q 1141 3584 1784 3584 
Q 2172 3584 2450 3431 
Q 2728 3278 2906 2969 
L 2906 3500 
L 3481 3500 
L 3481 434 
z
" transform="scale(0.015625)"/>
       <path id="DejaVuSans-31" d="M 794 531 
L 1825 531 
L 1825 4091 
L 703 3866 
L 703 4441 
L 1819 4666 
L 2450 4666 
L 2450 531 
L 3481 531 
L 3481 0 
L 794 0 
L 794 531 
z
" transform="scale(0.015625)"/>
       <path id="DejaVuSans-28" d="M 1984 4856 
Q 1566 4138 1362 3434 
Q 1159 2731 1159 2009 
Q 1159 1288 1364 580 
Q 1569 -128 1984 -844 
L 1484 -844 
Q 1016 -109 783 600 
Q 550 1309 550 2009 
Q 550 2706 781 3412 
Q 1013 4119 1484 4856 
L 1984 4856 
z
" transform="scale(0.015625)"/>
       <path id="DejaVuSans-7c" d="M 1344 4891 
L 1344 -1509 
L 813 -1509 
L 813 4891 
L 1344 4891 
z
" transform="scale(0.015625)"/>
       <path id="DejaVuSans-65" d="M 3597 1894 
L 3597 1613 
L 953 1613 
Q 991 1019 1311 708 
Q 1631 397 2203 397 
Q 2534 397 2845 478 
Q 3156 559 3463 722 
L 3463 178 
Q 3153 47 2828 -22 
Q 2503 -91 2169 -91 
Q 1331 -91 842 396 
Q 353 884 353 1716 
Q 353 2575 817 3079 
Q 1281 3584 2069 3584 
Q 2775 3584 3186 3129 
Q 3597 2675 3597 1894 
z
M 3022 2063 
Q 3016 2534 2758 2815 
Q 2500 3097 2075 3097 
Q 1594 3097 1305 2825 
Q 1016 2553 972 2059 
L 3022 2063 
z
" transform="scale(0.015625)"/>
       <path id="DejaVuSans-6e" d="M 3513 2113 
L 3513 0 
L 2938 0 
L 2938 2094 
Q 2938 2591 2744 2837 
Q 2550 3084 2163 3084 
Q 1697 3084 1428 2787 
Q 1159 2491 1159 1978 
L 1159 0 
L 581 0 
L 581 3500 
L 1159 3500 
L 1159 2956 
Q 1366 3272 1645 3428 
Q 1925 3584 2291 3584 
Q 2894 3584 3203 3211 
Q 3513 2838 3513 2113 
z
" transform="scale(0.015625)"/>
       <path id="DejaVuSans-72" d="M 2631 2963 
Q 2534 3019 2420 3045 
Q 2306 3072 2169 3072 
Q 1681 3072 1420 2755 
Q 1159 2438 1159 1844 
L 1159 0 
L 581 0 
L 581 3500 
L 1159 3500 
L 1159 2956 
Q 1341 3275 1631 3429 
Q 1922 3584 2338 3584 
Q 2397 3584 2469 3576 
Q 2541 3569 2628 3553 
L 2631 2963 
z
" transform="scale(0.015625)"/>
       <path id="DejaVuSans-79" d="M 2059 -325 
Q 1816 -950 1584 -1140 
Q 1353 -1331 966 -1331 
L 506 -1331 
L 506 -850 
L 844 -850 
Q 1081 -850 1212 -737 
Q 1344 -625 1503 -206 
L 1606 56 
L 191 3500 
L 800 3500 
L 1894 763 
L 2988 3500 
L 3597 3500 
L 2059 -325 
z
" transform="scale(0.015625)"/>
       <path id="DejaVuSans-5f" d="M 3263 -1063 
L 3263 -1509 
L -63 -1509 
L -63 -1063 
L 3263 -1063 
z
" transform="scale(0.015625)"/>
       <path id="DejaVuSans-75" d="M 544 1381 
L 544 3500 
L 1119 3500 
L 1119 1403 
Q 1119 906 1312 657 
Q 1506 409 1894 409 
Q 2359 409 2629 706 
Q 2900 1003 2900 1516 
L 2900 3500 
L 3475 3500 
L 3475 0 
L 2900 0 
L 2900 538 
Q 2691 219 2414 64 
Q 2138 -91 1772 -91 
Q 1169 -91 856 284 
Q 544 659 544 1381 
z
M 1991 3584 
L 1991 3584 
z
" transform="scale(0.015625)"/>
       <path id="DejaVuSans-73" d="M 2834 3397 
L 2834 2853 
Q 2591 2978 2328 3040 
Q 2066 3103 1784 3103 
Q 1356 3103 1142 2972 
Q 928 2841 928 2578 
Q 928 2378 1081 2264 
Q 1234 2150 1697 2047 
L 1894 2003 
Q 2506 1872 2764 1633 
Q 3022 1394 3022 966 
Q 3022 478 2636 193 
Q 2250 -91 1575 -91 
Q 1294 -91 989 -36 
Q 684 19 347 128 
L 347 722 
Q 666 556 975 473 
Q 1284 391 1588 391 
Q 1994 391 2212 530 
Q 2431 669 2431 922 
Q 2431 1156 2273 1281 
Q 2116 1406 1581 1522 
L 1381 1569 
Q 847 1681 609 1914 
Q 372 2147 372 2553 
Q 372 3047 722 3315 
Q 1072 3584 1716 3584 
Q 2034 3584 2315 3537 
Q 2597 3491 2834 3397 
z
" transform="scale(0.015625)"/>
       <path id="DejaVuSans-20" transform="scale(0.015625)"/>
       <path id="DejaVuSans-2d" d="M 313 2009 
L 1997 2009 
L 1997 1497 
L 313 1497 
L 313 2009 
z
" transform="scale(0.015625)"/>
       <path id="DejaVuSans-70" d="M 1159 525 
L 1159 -1331 
L 581 -1331 
L 581 3500 
L 1159 3500 
L 1159 2969 
Q 1341 3281 1617 3432 
Q 1894 3584 2278 3584 
Q 2916 3584 3314 3078 
Q 3713 2572 3713 1747 
Q 3713 922 3314 415 
Q 2916 -91 2278 -91 
Q 1894 -91 1617 61 
Q 1341 213 1159 525 
z
M 3116 1747 
Q 3116 2381 2855 2742 
Q 2594 3103 2138 3103 
Q 1681 3103 1420 2742 
Q 1159 2381 1159 1747 
Q 1159 1113 1420 752 
Q 1681 391 2138 391 
Q 2594 391 2855 752 
Q 3116 1113 3116 1747 
z
" transform="scale(0.015625)"/>
       <path id="DejaVuSans-63" d="M 3122 3366 
L 3122 2828 
Q 2878 2963 2633 3030 
Q 2388 3097 2138 3097 
Q 1578 3097 1268 2742 
Q 959 2388 959 1747 
Q 959 1106 1268 751 
Q 1578 397 2138 397 
Q 2388 397 2633 464 
Q 2878 531 3122 666 
L 3122 134 
Q 2881 22 2623 -34 
Q 2366 -91 2075 -91 
Q 1284 -91 818 406 
Q 353 903 353 1747 
Q 353 2603 823 3093 
Q 1294 3584 2113 3584 
Q 2378 3584 2631 3529 
Q 2884 3475 3122 3366 
z
" transform="scale(0.015625)"/>
       <path id="DejaVuSans-66" d="M 2375 4863 
L 2375 4384 
L 1825 4384 
Q 1516 4384 1395 4259 
Q 1275 4134 1275 3809 
L 1275 3500 
L 2222 3500 
L 2222 3053 
L 1275 3053 
L 1275 0 
L 697 0 
L 697 3053 
L 147 3053 
L 147 3500 
L 697 3500 
L 697 3744 
Q 697 4328 969 4595 
Q 1241 4863 1831 4863 
L 2375 4863 
z
" transform="scale(0.015625)"/>
       <path id="DejaVuSans-29" d="M 513 4856 
L 1013 4856 
Q 1481 4119 1714 3412 
Q 1947 2706 1947 2009 
Q 1947 1309 1714 600 
Q 1481 -109 1013 -844 
L 513 -844 
Q 928 -128 1133 580 
Q 1338 1288 1338 2009 
Q 1338 2731 1133 3434 
Q 928 4138 513 4856 
z
" transform="scale(0.015625)"/>
      </defs>
      <use xlink:href="#DejaVuSans-6c" transform="translate(0 0.578125)"/>
      <use xlink:href="#DejaVuSans-6f" transform="translate(27.783203 0.578125)"/>
      <use xlink:href="#DejaVuSans-67" transform="translate(88.964844 0.578125)"/>
      <use xlink:href="#DejaVuSans-31" transform="translate(153.398438 -15.828125) scale(0.7)"/>
      <use xlink:href="#DejaVuSans-30" transform="translate(197.93457 -15.828125) scale(0.7)"/>
      <use xlink:href="#DejaVuSans-28" transform="translate(245.205078 0.578125)"/>
      <use xlink:href="#DejaVuSans-7c" transform="translate(284.21875 0.578125)"/>
      <use xlink:href="#DejaVuSans-65" transform="translate(317.910156 0.578125)"/>
      <use xlink:href="#DejaVuSans-6e" transform="translate(379.433594 0.578125)"/>
      <use xlink:href="#DejaVuSans-65" transform="translate(442.8125 0.578125)"/>
      <use xlink:href="#DejaVuSans-72" transform="translate(504.335938 0.578125)"/>
      <use xlink:href="#DejaVuSans-67" transform="translate(545.449219 0.578125)"/>
      <use xlink:href="#DejaVuSans-79" transform="translate(608.925781 0.578125)"/>
      <use xlink:href="#DejaVuSans-5f" transform="translate(668.105469 0.578125)"/>
      <use xlink:href="#DejaVuSans-75" transform="translate(718.105469 0.578125)"/>
      <use xlink:href="#DejaVuSans-73" transform="translate(781.484375 0.578125)"/>
      <use xlink:href="#DejaVuSans-20" transform="translate(833.583984 0.578125)"/>
      <use xlink:href="#DejaVuSans-2d" transform="translate(865.371094 0.578125)"/>
      <use xlink:href="#DejaVuSans-20" transform="translate(901.455078 0.578125)"/>
      <use xlink:href="#DejaVuSans-65" transform="translate(933.242188 0.578125)"/>
      <use xlink:href="#DejaVuSans-6e" transform="translate(994.765625 0.578125)"/>
      <use xlink:href="#DejaVuSans-65" transform="translate(1058.144531 0.578125)"/>
      <use xlink:href="#DejaVuSans-72" transform="translate(1119.667969 0.578125)"/>
      <use xlink:href="#DejaVuSans-67" transform="translate(1160.78125 0.578125)"/>
      <use xlink:href="#DejaVuSans-79" transform="translate(1224.257812 0.578125)"/>
      <use xlink:href="#DejaVuSans-5f" transform="translate(1283.4375 0.578125)"/>
      <use xlink:href="#DejaVuSans-70" transform="translate(1333.4375 0.578125)"/>
      <use xlink:href="#DejaVuSans-79" transform="translate(1396.914062 0.578125)"/>
      <use xlink:href="#DejaVuSans-73" transform="translate(1456.09375 0.578125)"/>
      <use xlink:href="#DejaVuSans-63" transform="translate(1508.193359 0.578125)"/>
      <use xlink:href="#DejaVuSans-66" transform="translate(1563.173828 0.578125)"/>
      <use xlink:href="#DejaVuSans-29" transform="translate(1598.378906 0.578125)"/>
      <use xlink:href="#DejaVuSans-7c" transform="translate(1637.392578 0.578125)"/>
      <use xlink:href="#DejaVuSans-29" transform="translate(1671.083984 0.578125)"/>
     </g>
    </g>
   </g>
   <g id="matplotlib.axis_2">
    <g id="ytick_1">
     <g id="line2d_7">
      <path d="M 54.18 107.384865 
L 432 107.384865 
" clip-path="url(#p0a9f447f97)" style="fill: none; stroke: #ffffff; stroke-linecap: round"/>
     </g>
     <g id="text_8">
      <!-- 1 -->
      <g style="fill: #262626" transform="translate(37.68125 111.564006) scale(0.11 -0.11)">
       <use xlink:href="#DejaVuSans-31"/>
      </g>
     </g>
    </g>
    <g id="ytick_2">
     <g id="line2d_8">
      <path d="M 54.18 87.321693 
L 432 87.321693 
" clip-path="url(#p0a9f447f97)" style="fill: none; stroke: #ffffff; stroke-linecap: round"/>
     </g>
     <g id="text_9">
      <!-- 10 -->
      <g style="fill: #262626" transform="translate(30.6825 91.500834) scale(0.11 -0.11)">
       <use xlink:href="#DejaVuSans-31"/>
       <use xlink:href="#DejaVuSans-30" x="63.623047"/>
      </g>
     </g>
    </g>
    <g id="ytick_3">
     <g id="line2d_9">
      <path d="M 54.18 67.25852 
L 432 67.25852 
" clip-path="url(#p0a9f447f97)" style="fill: none; stroke: #ffffff; stroke-linecap: round"/>
     </g>
     <g id="text_10">
      <!-- 100 -->
      <g style="fill: #262626" transform="translate(23.68375 71.437661) scale(0.11 -0.11)">
       <use xlink:href="#DejaVuSans-31"/>
       <use xlink:href="#DejaVuSans-30" x="63.623047"/>
       <use xlink:href="#DejaVuSans-30" x="127.246094"/>
      </g>
     </g>
    </g>
    <g id="ytick_4">
     <g id="line2d_10">
      <path d="M 54.18 47.195348 
L 432 47.195348 
" clip-path="url(#p0a9f447f97)" style="fill: none; stroke: #ffffff; stroke-linecap: round"/>
     </g>
     <g id="text_11">
      <!-- 1000 -->
      <g style="fill: #262626" transform="translate(16.685 51.374488) scale(0.11 -0.11)">
       <use xlink:href="#DejaVuSans-31"/>
       <use xlink:href="#DejaVuSans-30" x="63.623047"/>
       <use xlink:href="#DejaVuSans-30" x="127.246094"/>
       <use xlink:href="#DejaVuSans-30" x="190.869141"/>
      </g>
     </g>
    </g>
    <g id="text_12">
     <!-- occurences -->
     <g style="fill: #262626" transform="translate(10.189375 104.833125) rotate(-90) scale(0.12 -0.12)">
      <use xlink:href="#DejaVuSans-6f"/>
      <use xlink:href="#DejaVuSans-63" x="61.181641"/>
      <use xlink:href="#DejaVuSans-63" x="116.162109"/>
      <use xlink:href="#DejaVuSans-75" x="171.142578"/>
      <use xlink:href="#DejaVuSans-72" x="234.521484"/>
      <use xlink:href="#DejaVuSans-65" x="273.384766"/>
      <use xlink:href="#DejaVuSans-6e" x="334.908203"/>
      <use xlink:href="#DejaVuSans-63" x="398.287109"/>
      <use xlink:href="#DejaVuSans-65" x="453.267578"/>
      <use xlink:href="#DejaVuSans-73" x="514.791016"/>
     </g>
    </g>
   </g>
   <g id="patch_3">
    <path d="M 227.672646 20170.557426 
L 229.898358 20170.557426 
L 229.898358 107.384865 
L 227.672646 107.384865 
z
" clip-path="url(#p0a9f447f97)" style="fill: #4c72b0"/>
   </g>
   <g id="patch_4">
    <path d="M 229.898358 20170.557426 
L 232.12407 20170.557426 
L 232.12407 20170.557426 
L 229.898358 20170.557426 
z
" clip-path="url(#p0a9f447f97)" style="fill: #4c72b0"/>
   </g>
   <g id="patch_5">
    <path d="M 232.12407 20170.557426 
L 234.349783 20170.557426 
L 234.349783 107.384865 
L 232.12407 107.384865 
z
" clip-path="url(#p0a9f447f97)" style="fill: #4c72b0"/>
   </g>
   <g id="patch_6">
    <path d="M 234.349783 20170.557426 
L 236.575495 20170.557426 
L 236.575495 20170.557426 
L 234.349783 20170.557426 
z
" clip-path="url(#p0a9f447f97)" style="fill: #4c72b0"/>
   </g>
   <g id="patch_7">
    <path d="M 236.575495 20170.557426 
L 238.801208 20170.557426 
L 238.801208 107.384865 
L 236.575495 107.384865 
z
" clip-path="url(#p0a9f447f97)" style="fill: #4c72b0"/>
   </g>
   <g id="patch_8">
    <path d="M 238.801208 20170.557426 
L 241.02692 20170.557426 
L 241.02692 107.384865 
L 238.801208 107.384865 
z
" clip-path="url(#p0a9f447f97)" style="fill: #4c72b0"/>
   </g>
   <g id="patch_9">
    <path d="M 241.02692 20170.557426 
L 243.252632 20170.557426 
L 243.252632 107.384865 
L 241.02692 107.384865 
z
" clip-path="url(#p0a9f447f97)" style="fill: #4c72b0"/>
   </g>
   <g id="patch_10">
    <path d="M 243.252632 20170.557426 
L 245.478345 20170.557426 
L 245.478345 107.384865 
L 243.252632 107.384865 
z
" clip-path="url(#p0a9f447f97)" style="fill: #4c72b0"/>
   </g>
   <g id="patch_11">
    <path d="M 245.478345 20170.557426 
L 247.704057 20170.557426 
L 247.704057 91.772683 
L 245.478345 91.772683 
z
" clip-path="url(#p0a9f447f97)" style="fill: #4c72b0"/>
   </g>
   <g id="patch_12">
    <path d="M 247.704057 20170.557426 
L 249.929769 20170.557426 
L 249.929769 93.36131 
L 247.704057 93.36131 
z
" clip-path="url(#p0a9f447f97)" style="fill: #4c72b0"/>
   </g>
   <g id="patch_13">
    <path d="M 249.929769 20170.557426 
L 252.155482 20170.557426 
L 252.155482 81.729011 
L 249.929769 81.729011 
z
" clip-path="url(#p0a9f447f97)" style="fill: #4c72b0"/>
   </g>
   <g id="patch_14">
    <path d="M 252.155482 20170.557426 
L 254.381194 20170.557426 
L 254.381194 76.1605 
L 252.155482 76.1605 
z
" clip-path="url(#p0a9f447f97)" style="fill: #4c72b0"/>
   </g>
   <g id="patch_15">
    <path d="M 254.381194 20170.557426 
L 256.606907 20170.557426 
L 256.606907 68.273917 
L 254.381194 68.273917 
z
" clip-path="url(#p0a9f447f97)" style="fill: #4c72b0"/>
   </g>
   <g id="patch_16">
    <path d="M 256.606907 20170.557426 
L 258.832619 20170.557426 
L 258.832619 61.306475 
L 256.606907 61.306475 
z
" clip-path="url(#p0a9f447f97)" style="fill: #4c72b0"/>
   </g>
   <g id="patch_17">
    <path d="M 258.832619 20170.557426 
L 261.058331 20170.557426 
L 261.058331 54.056724 
L 258.832619 54.056724 
z
" clip-path="url(#p0a9f447f97)" style="fill: #4c72b0"/>
   </g>
   <g id="patch_18">
    <path d="M 261.058331 20170.557426 
L 263.284044 20170.557426 
L 263.284044 46.954728 
L 261.058331 46.954728 
z
" clip-path="url(#p0a9f447f97)" style="fill: #4c72b0"/>
   </g>
   <g id="patch_19">
    <path d="M 263.284044 20170.557426 
L 265.509756 20170.557426 
L 265.509756 40.949081 
L 263.284044 40.949081 
z
" clip-path="url(#p0a9f447f97)" style="fill: #4c72b0"/>
   </g>
   <g id="patch_20">
    <path d="M 265.509756 20170.557426 
L 267.735468 20170.557426 
L 267.735468 36.869223 
L 265.509756 36.869223 
z
" clip-path="url(#p0a9f447f97)" style="fill: #4c72b0"/>
   </g>
   <g id="patch_21">
    <path d="M 267.735468 20170.557426 
L 269.961181 20170.557426 
L 269.961181 35.556173 
L 267.735468 35.556173 
z
" clip-path="url(#p0a9f447f97)" style="fill: #4c72b0"/>
   </g>
   <g id="patch_22">
    <path d="M 269.961181 20170.557426 
L 272.186893 20170.557426 
L 272.186893 39.523646 
L 269.961181 39.523646 
z
" clip-path="url(#p0a9f447f97)" style="fill: #4c72b0"/>
   </g>
   <g id="patch_23">
    <path d="M 272.186893 20170.557426 
L 274.412606 20170.557426 
L 274.412606 50.045617 
L 272.186893 50.045617 
z
" clip-path="url(#p0a9f447f97)" style="fill: #4c72b0"/>
   </g>
   <g id="patch_24">
    <path d="M 274.412606 20170.557426 
L 276.638318 20170.557426 
L 276.638318 66.116829 
L 274.412606 66.116829 
z
" clip-path="url(#p0a9f447f97)" style="fill: #4c72b0"/>
   </g>
   <g id="patch_25">
    <path d="M 276.638318 20170.557426 
L 278.86403 20170.557426 
L 278.86403 91.772683 
L 276.638318 91.772683 
z
" clip-path="url(#p0a9f447f97)" style="fill: #4c72b0"/>
   </g>
   <g id="patch_26">
    <path d="M 278.86403 20170.557426 
L 281.089743 20170.557426 
L 281.089743 20170.557426 
L 278.86403 20170.557426 
z
" clip-path="url(#p0a9f447f97)" style="fill: #4c72b0"/>
   </g>
   <g id="patch_27">
    <path d="M 281.089743 20170.557426 
L 283.315455 20170.557426 
L 283.315455 107.384865 
L 281.089743 107.384865 
z
" clip-path="url(#p0a9f447f97)" style="fill: #4c72b0"/>
   </g>
   <g id="patch_28">
    <path d="M 97.701638 20170.557426 
L 99.924437 20170.557426 
L 99.924437 107.384865 
L 97.701638 107.384865 
z
" clip-path="url(#p0a9f447f97)" style="fill: #dd8452; opacity: 0.3"/>
   </g>
   <g id="patch_29">
    <path d="M 99.924437 20170.557426 
L 102.147236 20170.557426 
L 102.147236 20170.557426 
L 99.924437 20170.557426 
z
" clip-path="url(#p0a9f447f97)" style="fill: #dd8452; opacity: 0.3"/>
   </g>
   <g id="patch_30">
    <path d="M 102.147236 20170.557426 
L 104.370035 20170.557426 
L 104.370035 107.384865 
L 102.147236 107.384865 
z
" clip-path="url(#p0a9f447f97)" style="fill: #dd8452; opacity: 0.3"/>
   </g>
   <g id="patch_31">
    <path d="M 104.370035 20170.557426 
L 106.592834 20170.557426 
L 106.592834 20170.557426 
L 104.370035 20170.557426 
z
" clip-path="url(#p0a9f447f97)" style="fill: #dd8452; opacity: 0.3"/>
   </g>
   <g id="patch_32">
    <path d="M 106.592834 20170.557426 
L 108.815632 20170.557426 
L 108.815632 107.384865 
L 106.592834 107.384865 
z
" clip-path="url(#p0a9f447f97)" style="fill: #dd8452; opacity: 0.3"/>
   </g>
   <g id="patch_33">
    <path d="M 108.815632 20170.557426 
L 111.038431 20170.557426 
L 111.038431 101.345249 
L 108.815632 101.345249 
z
" clip-path="url(#p0a9f447f97)" style="fill: #dd8452; opacity: 0.3"/>
   </g>
   <g id="patch_34">
    <path d="M 111.038431 20170.557426 
L 113.26123 20170.557426 
L 113.26123 20170.557426 
L 111.038431 20170.557426 
z
" clip-path="url(#p0a9f447f97)" style="fill: #dd8452; opacity: 0.3"/>
   </g>
   <g id="patch_35">
    <path d="M 113.26123 20170.557426 
L 115.484029 20170.557426 
L 115.484029 20170.557426 
L 113.26123 20170.557426 
z
" clip-path="url(#p0a9f447f97)" style="fill: #dd8452; opacity: 0.3"/>
   </g>
   <g id="patch_36">
    <path d="M 115.484029 20170.557426 
L 117.706828 20170.557426 
L 117.706828 89.266015 
L 115.484029 89.266015 
z
" clip-path="url(#p0a9f447f97)" style="fill: #dd8452; opacity: 0.3"/>
   </g>
   <g id="patch_37">
    <path d="M 117.706828 20170.557426 
L 119.929627 20170.557426 
L 119.929627 95.305632 
L 117.706828 95.305632 
z
" clip-path="url(#p0a9f447f97)" style="fill: #dd8452; opacity: 0.3"/>
   </g>
   <g id="patch_38">
    <path d="M 119.929627 20170.557426 
L 122.152425 20170.557426 
L 122.152425 80.451608 
L 119.929627 80.451608 
z
" clip-path="url(#p0a9f447f97)" style="fill: #dd8452; opacity: 0.3"/>
   </g>
   <g id="patch_39">
    <path d="M 122.152425 20170.557426 
L 124.375224 20170.557426 
L 124.375224 75.689395 
L 122.152425 75.689395 
z
" clip-path="url(#p0a9f447f97)" style="fill: #dd8452; opacity: 0.3"/>
   </g>
   <g id="patch_40">
    <path d="M 124.375224 20170.557426 
L 126.598023 20170.557426 
L 126.598023 67.890852 
L 124.375224 67.890852 
z
" clip-path="url(#p0a9f447f97)" style="fill: #dd8452; opacity: 0.3"/>
   </g>
   <g id="patch_41">
    <path d="M 126.598023 20170.557426 
L 128.820822 20170.557426 
L 128.820822 59.776723 
L 126.598023 59.776723 
z
" clip-path="url(#p0a9f447f97)" style="fill: #dd8452; opacity: 0.3"/>
   </g>
   <g id="patch_42">
    <path d="M 128.820822 20170.557426 
L 131.043621 20170.557426 
L 131.043621 53.375505 
L 128.820822 53.375505 
z
" clip-path="url(#p0a9f447f97)" style="fill: #dd8452; opacity: 0.3"/>
   </g>
   <g id="patch_43">
    <path d="M 131.043621 20170.557426 
L 133.26642 20170.557426 
L 133.26642 45.992723 
L 131.043621 45.992723 
z
" clip-path="url(#p0a9f447f97)" style="fill: #dd8452; opacity: 0.3"/>
   </g>
   <g id="patch_44">
    <path d="M 133.26642 20170.557426 
L 135.489218 20170.557426 
L 135.489218 40.191632 
L 133.26642 40.191632 
z
" clip-path="url(#p0a9f447f97)" style="fill: #dd8452; opacity: 0.3"/>
   </g>
   <g id="patch_45">
    <path d="M 135.489218 20170.557426 
L 137.712017 20170.557426 
L 137.712017 36.097313 
L 135.489218 36.097313 
z
" clip-path="url(#p0a9f447f97)" style="fill: #dd8452; opacity: 0.3"/>
   </g>
   <g id="patch_46">
    <path d="M 137.712017 20170.557426 
L 139.934816 20170.557426 
L 139.934816 35.739082 
L 137.712017 35.739082 
z
" clip-path="url(#p0a9f447f97)" style="fill: #dd8452; opacity: 0.3"/>
   </g>
   <g id="patch_47">
    <path d="M 139.934816 20170.557426 
L 142.157615 20170.557426 
L 142.157615 40.85598 
L 139.934816 40.85598 
z
" clip-path="url(#p0a9f447f97)" style="fill: #dd8452; opacity: 0.3"/>
   </g>
   <g id="patch_48">
    <path d="M 142.157615 20170.557426 
L 144.380414 20170.557426 
L 144.380414 52.994345 
L 142.157615 52.994345 
z
" clip-path="url(#p0a9f447f97)" style="fill: #dd8452; opacity: 0.3"/>
   </g>
   <g id="patch_49">
    <path d="M 144.380414 20170.557426 
L 146.603213 20170.557426 
L 146.603213 72.790421 
L 144.380414 72.790421 
z
" clip-path="url(#p0a9f447f97)" style="fill: #dd8452; opacity: 0.3"/>
   </g>
   <g id="patch_50">
    <path d="M 146.603213 20170.557426 
L 148.826011 20170.557426 
L 148.826011 107.384865 
L 146.603213 107.384865 
z
" clip-path="url(#p0a9f447f97)" style="fill: #dd8452; opacity: 0.3"/>
   </g>
   <g id="patch_51">
    <path d="M 148.826011 20170.557426 
L 151.04881 20170.557426 
L 151.04881 107.384865 
L 148.826011 107.384865 
z
" clip-path="url(#p0a9f447f97)" style="fill: #dd8452; opacity: 0.3"/>
   </g>
   <g id="patch_52">
    <path d="M 151.04881 20170.557426 
L 153.271609 20170.557426 
L 153.271609 107.384865 
L 151.04881 107.384865 
z
" clip-path="url(#p0a9f447f97)" style="fill: #dd8452; opacity: 0.3"/>
   </g>
   <g id="patch_53">
    <path d="M 277.460395 20170.557426 
L 284.292402 20170.557426 
L 284.292402 85.035628 
L 277.460395 85.035628 
z
" clip-path="url(#p0a9f447f97)" style="fill: #c44e52; opacity: 0.3"/>
   </g>
   <g id="patch_54">
    <path d="M 284.292402 20170.557426 
L 291.124409 20170.557426 
L 291.124409 93.36131 
L 284.292402 93.36131 
z
" clip-path="url(#p0a9f447f97)" style="fill: #c44e52; opacity: 0.3"/>
   </g>
   <g id="patch_55">
    <path d="M 291.124409 20170.557426 
L 297.956416 20170.557426 
L 297.956416 91.772683 
L 291.124409 91.772683 
z
" clip-path="url(#p0a9f447f97)" style="fill: #c44e52; opacity: 0.3"/>
   </g>
   <g id="patch_56">
    <path d="M 297.956416 20170.557426 
L 304.788423 20170.557426 
L 304.788423 93.36131 
L 297.956416 93.36131 
z
" clip-path="url(#p0a9f447f97)" style="fill: #c44e52; opacity: 0.3"/>
   </g>
   <g id="patch_57">
    <path d="M 304.788423 20170.557426 
L 311.62043 20170.557426 
L 311.62043 97.812299 
L 304.788423 97.812299 
z
" clip-path="url(#p0a9f447f97)" style="fill: #c44e52; opacity: 0.3"/>
   </g>
   <g id="patch_58">
    <path d="M 311.62043 20170.557426 
L 318.452437 20170.557426 
L 318.452437 95.305632 
L 311.62043 95.305632 
z
" clip-path="url(#p0a9f447f97)" style="fill: #c44e52; opacity: 0.3"/>
   </g>
   <g id="patch_59">
    <path d="M 318.452437 20170.557426 
L 325.284444 20170.557426 
L 325.284444 97.812299 
L 318.452437 97.812299 
z
" clip-path="url(#p0a9f447f97)" style="fill: #c44e52; opacity: 0.3"/>
   </g>
   <g id="patch_60">
    <path d="M 325.284444 20170.557426 
L 332.116451 20170.557426 
L 332.116451 90.429518 
L 325.284444 90.429518 
z
" clip-path="url(#p0a9f447f97)" style="fill: #c44e52; opacity: 0.3"/>
   </g>
   <g id="patch_61">
    <path d="M 332.116451 20170.557426 
L 338.948458 20170.557426 
L 338.948458 101.345249 
L 332.116451 101.345249 
z
" clip-path="url(#p0a9f447f97)" style="fill: #c44e52; opacity: 0.3"/>
   </g>
   <g id="patch_62">
    <path d="M 338.948458 20170.557426 
L 345.780465 20170.557426 
L 345.780465 101.345249 
L 338.948458 101.345249 
z
" clip-path="url(#p0a9f447f97)" style="fill: #c44e52; opacity: 0.3"/>
   </g>
   <g id="patch_63">
    <path d="M 345.780465 20170.557426 
L 352.612472 20170.557426 
L 352.612472 20170.557426 
L 345.780465 20170.557426 
z
" clip-path="url(#p0a9f447f97)" style="fill: #c44e52; opacity: 0.3"/>
   </g>
   <g id="patch_64">
    <path d="M 352.612472 20170.557426 
L 359.444479 20170.557426 
L 359.444479 101.345249 
L 352.612472 101.345249 
z
" clip-path="url(#p0a9f447f97)" style="fill: #c44e52; opacity: 0.3"/>
   </g>
   <g id="patch_65">
    <path d="M 359.444479 20170.557426 
L 366.276486 20170.557426 
L 366.276486 95.305632 
L 359.444479 95.305632 
z
" clip-path="url(#p0a9f447f97)" style="fill: #c44e52; opacity: 0.3"/>
   </g>
   <g id="patch_66">
    <path d="M 366.276486 20170.557426 
L 373.108493 20170.557426 
L 373.108493 101.345249 
L 366.276486 101.345249 
z
" clip-path="url(#p0a9f447f97)" style="fill: #c44e52; opacity: 0.3"/>
   </g>
   <g id="patch_67">
    <path d="M 373.108493 20170.557426 
L 379.9405 20170.557426 
L 379.9405 20170.557426 
L 373.108493 20170.557426 
z
" clip-path="url(#p0a9f447f97)" style="fill: #c44e52; opacity: 0.3"/>
   </g>
   <g id="patch_68">
    <path d="M 379.9405 20170.557426 
L 386.772507 20170.557426 
L 386.772507 101.345249 
L 379.9405 101.345249 
z
" clip-path="url(#p0a9f447f97)" style="fill: #c44e52; opacity: 0.3"/>
   </g>
   <g id="patch_69">
    <path d="M 386.772507 20170.557426 
L 393.604514 20170.557426 
L 393.604514 107.384865 
L 386.772507 107.384865 
z
" clip-path="url(#p0a9f447f97)" style="fill: #c44e52; opacity: 0.3"/>
   </g>
   <g id="patch_70">
    <path d="M 393.604514 20170.557426 
L 400.436521 20170.557426 
L 400.436521 101.345249 
L 393.604514 101.345249 
z
" clip-path="url(#p0a9f447f97)" style="fill: #c44e52; opacity: 0.3"/>
   </g>
   <g id="patch_71">
    <path d="M 400.436521 20170.557426 
L 407.268528 20170.557426 
L 407.268528 107.384865 
L 400.436521 107.384865 
z
" clip-path="url(#p0a9f447f97)" style="fill: #c44e52; opacity: 0.3"/>
   </g>
   <g id="patch_72">
    <path d="M 407.268528 20170.557426 
L 414.100535 20170.557426 
L 414.100535 101.345249 
L 407.268528 101.345249 
z
" clip-path="url(#p0a9f447f97)" style="fill: #c44e52; opacity: 0.3"/>
   </g>
   <g id="patch_73">
    <path d="M 414.100535 20170.557426 
L 420.932543 20170.557426 
L 420.932543 20170.557426 
L 414.100535 20170.557426 
z
" clip-path="url(#p0a9f447f97)" style="fill: #c44e52; opacity: 0.3"/>
   </g>
   <g id="patch_74">
    <path d="M 420.932543 20170.557426 
L 427.76455 20170.557426 
L 427.76455 20170.557426 
L 420.932543 20170.557426 
z
" clip-path="url(#p0a9f447f97)" style="fill: #c44e52; opacity: 0.3"/>
   </g>
   <g id="patch_75">
    <path d="M 427.76455 20170.557426 
L 434.596557 20170.557426 
L 434.596557 107.384865 
L 427.76455 107.384865 
z
" clip-path="url(#p0a9f447f97)" style="fill: #c44e52; opacity: 0.3"/>
   </g>
   <g id="patch_76">
    <path d="M 434.596557 20170.557426 
L 441.428564 20170.557426 
L 441.428564 85.035628 
L 434.596557 85.035628 
z
" clip-path="url(#p0a9f447f97)" style="fill: #c44e52; opacity: 0.3"/>
   </g>
   <g id="patch_77">
    <path d="M 441.428564 20170.557426 
L 448.260571 20170.557426 
L 448.260571 71.855956 
L 441.428564 71.855956 
z
" clip-path="url(#p0a9f447f97)" style="fill: #c44e52; opacity: 0.3"/>
   </g>
   <g id="line2d_11">
    <path d="M 267.725343 152.2 
L 267.725343 27.132175 
" clip-path="url(#p0a9f447f97)" style="fill: none; stroke: #1a1a1a; stroke-width: 1.5; stroke-linecap: round"/>
   </g>
   <g id="line2d_12">
    <path d="M 293.530859 152.2 
L 293.530859 27.132175 
" clip-path="url(#p0a9f447f97)" style="fill: none; stroke: #55a868; stroke-width: 1.5; stroke-linecap: round"/>
   </g>
   <g id="patch_78">
    <path d="M 54.18 111.3975 
L 54.18 30.24 
" style="fill: none; stroke: #ffffff; stroke-width: 1.25; stroke-linejoin: miter; stroke-linecap: square"/>
   </g>
   <g id="patch_79">
    <path d="M 432 111.3975 
L 432 30.24 
" style="fill: none; stroke: #ffffff; stroke-width: 1.25; stroke-linejoin: miter; stroke-linecap: square"/>
   </g>
   <g id="patch_80">
    <path d="M 54.18 111.3975 
L 432 111.3975 
" style="fill: none; stroke: #ffffff; stroke-width: 1.25; stroke-linejoin: miter; stroke-linecap: square"/>
   </g>
   <g id="patch_81">
    <path d="M 54.18 30.24 
L 432 30.24 
" style="fill: none; stroke: #ffffff; stroke-width: 1.25; stroke-linejoin: miter; stroke-linecap: square"/>
   </g>
   <g id="text_13">
    <!-- MAE=0.00606 -->
    <g style="fill: #262626" transform="translate(267.725343 39.211409) scale(0.12 -0.12)">
     <defs>
      <path id="DejaVuSans-4d" d="M 628 4666 
L 1569 4666 
L 2759 1491 
L 3956 4666 
L 4897 4666 
L 4897 0 
L 4281 0 
L 4281 4097 
L 3078 897 
L 2444 897 
L 1241 4097 
L 1241 0 
L 628 0 
L 628 4666 
z
" transform="scale(0.015625)"/>
      <path id="DejaVuSans-41" d="M 2188 4044 
L 1331 1722 
L 3047 1722 
L 2188 4044 
z
M 1831 4666 
L 2547 4666 
L 4325 0 
L 3669 0 
L 3244 1197 
L 1141 1197 
L 716 0 
L 50 0 
L 1831 4666 
z
" transform="scale(0.015625)"/>
      <path id="DejaVuSans-45" d="M 628 4666 
L 3578 4666 
L 3578 4134 
L 1259 4134 
L 1259 2753 
L 3481 2753 
L 3481 2222 
L 1259 2222 
L 1259 531 
L 3634 531 
L 3634 0 
L 628 0 
L 628 4666 
z
" transform="scale(0.015625)"/>
      <path id="DejaVuSans-3d" d="M 678 2906 
L 4684 2906 
L 4684 2381 
L 678 2381 
L 678 2906 
z
M 678 1631 
L 4684 1631 
L 4684 1100 
L 678 1100 
L 678 1631 
z
" transform="scale(0.015625)"/>
      <path id="DejaVuSans-2e" d="M 684 794 
L 1344 794 
L 1344 0 
L 684 0 
L 684 794 
z
" transform="scale(0.015625)"/>
     </defs>
     <use xlink:href="#DejaVuSans-4d"/>
     <use xlink:href="#DejaVuSans-41" x="86.279297"/>
     <use xlink:href="#DejaVuSans-45" x="154.6875"/>
     <use xlink:href="#DejaVuSans-3d" x="217.871094"/>
     <use xlink:href="#DejaVuSans-30" x="301.660156"/>
     <use xlink:href="#DejaVuSans-2e" x="365.283203"/>
     <use xlink:href="#DejaVuSans-30" x="397.070312"/>
     <use xlink:href="#DejaVuSans-30" x="460.693359"/>
     <use xlink:href="#DejaVuSans-36" x="524.316406"/>
     <use xlink:href="#DejaVuSans-30" x="587.939453"/>
     <use xlink:href="#DejaVuSans-36" x="651.5625"/>
    </g>
   </g>
  </g>
  <g id="axes_2">
   <g id="patch_82">
    <path d="M 486.18 111.3975 
L 864 111.3975 
L 864 30.24 
L 486.18 30.24 
z
" style="fill: #eaeaf2"/>
   </g>
   <g id="matplotlib.axis_3">
    <g id="xtick_7">
     <g id="line2d_13">
      <path d="M 517.665 111.3975 
L 517.665 30.24 
" clip-path="url(#p1c02f58b3d)" style="fill: none; stroke: #ffffff; stroke-linecap: round"/>
     </g>
     <g id="text_14">
      <!-- −8 -->
      <g style="fill: #262626" transform="translate(509.556797 129.255781) scale(0.11 -0.11)">
       <use xlink:href="#DejaVuSans-2212"/>
       <use xlink:href="#DejaVuSans-38" x="83.789062"/>
      </g>
     </g>
    </g>
    <g id="xtick_8">
     <g id="line2d_14">
      <path d="M 580.635 111.3975 
L 580.635 30.24 
" clip-path="url(#p1c02f58b3d)" style="fill: none; stroke: #ffffff; stroke-linecap: round"/>
     </g>
     <g id="text_15">
      <!-- −6 -->
      <g style="fill: #262626" transform="translate(572.526797 129.255781) scale(0.11 -0.11)">
       <use xlink:href="#DejaVuSans-2212"/>
       <use xlink:href="#DejaVuSans-36" x="83.789062"/>
      </g>
     </g>
    </g>
    <g id="xtick_9">
     <g id="line2d_15">
      <path d="M 643.605 111.3975 
L 643.605 30.24 
" clip-path="url(#p1c02f58b3d)" style="fill: none; stroke: #ffffff; stroke-linecap: round"/>
     </g>
     <g id="text_16">
      <!-- −4 -->
      <g style="fill: #262626" transform="translate(635.496797 129.255781) scale(0.11 -0.11)">
       <use xlink:href="#DejaVuSans-2212"/>
       <use xlink:href="#DejaVuSans-34" x="83.789062"/>
      </g>
     </g>
    </g>
    <g id="xtick_10">
     <g id="line2d_16">
      <path d="M 706.575 111.3975 
L 706.575 30.24 
" clip-path="url(#p1c02f58b3d)" style="fill: none; stroke: #ffffff; stroke-linecap: round"/>
     </g>
     <g id="text_17">
      <!-- −2 -->
      <g style="fill: #262626" transform="translate(698.466797 129.255781) scale(0.11 -0.11)">
       <use xlink:href="#DejaVuSans-2212"/>
       <use xlink:href="#DejaVuSans-32" x="83.789062"/>
      </g>
     </g>
    </g>
    <g id="xtick_11">
     <g id="line2d_17">
      <path d="M 769.545 111.3975 
L 769.545 30.24 
" clip-path="url(#p1c02f58b3d)" style="fill: none; stroke: #ffffff; stroke-linecap: round"/>
     </g>
     <g id="text_18">
      <!-- 0 -->
      <g style="fill: #262626" transform="translate(766.045625 129.255781) scale(0.11 -0.11)">
       <use xlink:href="#DejaVuSans-30"/>
      </g>
     </g>
    </g>
    <g id="xtick_12">
     <g id="line2d_18">
      <path d="M 832.515 111.3975 
L 832.515 30.24 
" clip-path="url(#p1c02f58b3d)" style="fill: none; stroke: #ffffff; stroke-linecap: round"/>
     </g>
     <g id="text_19">
      <!-- 2 -->
      <g style="fill: #262626" transform="translate(829.015625 129.255781) scale(0.11 -0.11)">
       <use xlink:href="#DejaVuSans-32"/>
      </g>
     </g>
    </g>
    <g id="text_20">
     <!-- log$_{10}$(|hlgap_us - hlgap_pyscf|) -->
     <g style="fill: #262626" transform="translate(583.29 144.783438) scale(0.12 -0.12)">
      <defs>
       <path id="DejaVuSans-68" d="M 3513 2113 
L 3513 0 
L 2938 0 
L 2938 2094 
Q 2938 2591 2744 2837 
Q 2550 3084 2163 3084 
Q 1697 3084 1428 2787 
Q 1159 2491 1159 1978 
L 1159 0 
L 581 0 
L 581 4863 
L 1159 4863 
L 1159 2956 
Q 1366 3272 1645 3428 
Q 1925 3584 2291 3584 
Q 2894 3584 3203 3211 
Q 3513 2838 3513 2113 
z
" transform="scale(0.015625)"/>
       <path id="DejaVuSans-61" d="M 2194 1759 
Q 1497 1759 1228 1600 
Q 959 1441 959 1056 
Q 959 750 1161 570 
Q 1363 391 1709 391 
Q 2188 391 2477 730 
Q 2766 1069 2766 1631 
L 2766 1759 
L 2194 1759 
z
M 3341 1997 
L 3341 0 
L 2766 0 
L 2766 531 
Q 2569 213 2275 61 
Q 1981 -91 1556 -91 
Q 1019 -91 701 211 
Q 384 513 384 1019 
Q 384 1609 779 1909 
Q 1175 2209 1959 2209 
L 2766 2209 
L 2766 2266 
Q 2766 2663 2505 2880 
Q 2244 3097 1772 3097 
Q 1472 3097 1187 3025 
Q 903 2953 641 2809 
L 641 3341 
Q 956 3463 1253 3523 
Q 1550 3584 1831 3584 
Q 2591 3584 2966 3190 
Q 3341 2797 3341 1997 
z
" transform="scale(0.015625)"/>
      </defs>
      <use xlink:href="#DejaVuSans-6c" transform="translate(0 0.578125)"/>
      <use xlink:href="#DejaVuSans-6f" transform="translate(27.783203 0.578125)"/>
      <use xlink:href="#DejaVuSans-67" transform="translate(88.964844 0.578125)"/>
      <use xlink:href="#DejaVuSans-31" transform="translate(153.398438 -15.828125) scale(0.7)"/>
      <use xlink:href="#DejaVuSans-30" transform="translate(197.93457 -15.828125) scale(0.7)"/>
      <use xlink:href="#DejaVuSans-28" transform="translate(245.205078 0.578125)"/>
      <use xlink:href="#DejaVuSans-7c" transform="translate(284.21875 0.578125)"/>
      <use xlink:href="#DejaVuSans-68" transform="translate(317.910156 0.578125)"/>
      <use xlink:href="#DejaVuSans-6c" transform="translate(381.289062 0.578125)"/>
      <use xlink:href="#DejaVuSans-67" transform="translate(409.072266 0.578125)"/>
      <use xlink:href="#DejaVuSans-61" transform="translate(472.548828 0.578125)"/>
      <use xlink:href="#DejaVuSans-70" transform="translate(533.828125 0.578125)"/>
      <use xlink:href="#DejaVuSans-5f" transform="translate(597.304688 0.578125)"/>
      <use xlink:href="#DejaVuSans-75" transform="translate(647.304688 0.578125)"/>
      <use xlink:href="#DejaVuSans-73" transform="translate(710.683594 0.578125)"/>
      <use xlink:href="#DejaVuSans-20" transform="translate(762.783203 0.578125)"/>
      <use xlink:href="#DejaVuSans-2d" transform="translate(794.570312 0.578125)"/>
      <use xlink:href="#DejaVuSans-20" transform="translate(830.654297 0.578125)"/>
      <use xlink:href="#DejaVuSans-68" transform="translate(862.441406 0.578125)"/>
      <use xlink:href="#DejaVuSans-6c" transform="translate(925.820312 0.578125)"/>
      <use xlink:href="#DejaVuSans-67" transform="translate(953.603516 0.578125)"/>
      <use xlink:href="#DejaVuSans-61" transform="translate(1017.080078 0.578125)"/>
      <use xlink:href="#DejaVuSans-70" transform="translate(1078.359375 0.578125)"/>
      <use xlink:href="#DejaVuSans-5f" transform="translate(1141.835938 0.578125)"/>
      <use xlink:href="#DejaVuSans-70" transform="translate(1191.835938 0.578125)"/>
      <use xlink:href="#DejaVuSans-79" transform="translate(1255.3125 0.578125)"/>
      <use xlink:href="#DejaVuSans-73" transform="translate(1314.492188 0.578125)"/>
      <use xlink:href="#DejaVuSans-63" transform="translate(1366.591797 0.578125)"/>
      <use xlink:href="#DejaVuSans-66" transform="translate(1421.572266 0.578125)"/>
      <use xlink:href="#DejaVuSans-7c" transform="translate(1456.777344 0.578125)"/>
      <use xlink:href="#DejaVuSans-29" transform="translate(1490.46875 0.578125)"/>
     </g>
    </g>
   </g>
   <g id="matplotlib.axis_4">
    <g id="ytick_5">
     <g id="line2d_19">
      <path d="M 486.18 105.523755 
L 864 105.523755 
" clip-path="url(#p1c02f58b3d)" style="fill: none; stroke: #ffffff; stroke-linecap: round"/>
     </g>
     <g id="text_21">
      <!-- 1 -->
      <g style="fill: #262626" transform="translate(469.68125 109.702895) scale(0.11 -0.11)">
       <use xlink:href="#DejaVuSans-31"/>
      </g>
     </g>
    </g>
    <g id="ytick_6">
     <g id="line2d_20">
      <path d="M 486.18 85.944604 
L 864 85.944604 
" clip-path="url(#p1c02f58b3d)" style="fill: none; stroke: #ffffff; stroke-linecap: round"/>
     </g>
     <g id="text_22">
      <!-- 10 -->
      <g style="fill: #262626" transform="translate(462.6825 90.123744) scale(0.11 -0.11)">
       <use xlink:href="#DejaVuSans-31"/>
       <use xlink:href="#DejaVuSans-30" x="63.623047"/>
      </g>
     </g>
    </g>
    <g id="ytick_7">
     <g id="line2d_21">
      <path d="M 486.18 66.365453 
L 864 66.365453 
" clip-path="url(#p1c02f58b3d)" style="fill: none; stroke: #ffffff; stroke-linecap: round"/>
     </g>
     <g id="text_23">
      <!-- 100 -->
      <g style="fill: #262626" transform="translate(455.68375 70.544594) scale(0.11 -0.11)">
       <use xlink:href="#DejaVuSans-31"/>
       <use xlink:href="#DejaVuSans-30" x="63.623047"/>
       <use xlink:href="#DejaVuSans-30" x="127.246094"/>
      </g>
     </g>
    </g>
    <g id="ytick_8">
     <g id="line2d_22">
      <path d="M 486.18 46.786302 
L 864 46.786302 
" clip-path="url(#p1c02f58b3d)" style="fill: none; stroke: #ffffff; stroke-linecap: round"/>
     </g>
     <g id="text_24">
      <!-- 1000 -->
      <g style="fill: #262626" transform="translate(448.685 50.965443) scale(0.11 -0.11)">
       <use xlink:href="#DejaVuSans-31"/>
       <use xlink:href="#DejaVuSans-30" x="63.623047"/>
       <use xlink:href="#DejaVuSans-30" x="127.246094"/>
       <use xlink:href="#DejaVuSans-30" x="190.869141"/>
      </g>
     </g>
    </g>
    <g id="text_25">
     <!-- occurences -->
     <g style="fill: #262626" transform="translate(442.189375 104.833125) rotate(-90) scale(0.12 -0.12)">
      <use xlink:href="#DejaVuSans-6f"/>
      <use xlink:href="#DejaVuSans-63" x="61.181641"/>
      <use xlink:href="#DejaVuSans-63" x="116.162109"/>
      <use xlink:href="#DejaVuSans-75" x="171.142578"/>
      <use xlink:href="#DejaVuSans-72" x="234.521484"/>
      <use xlink:href="#DejaVuSans-65" x="273.384766"/>
      <use xlink:href="#DejaVuSans-6e" x="334.908203"/>
      <use xlink:href="#DejaVuSans-63" x="398.287109"/>
      <use xlink:href="#DejaVuSans-65" x="453.267578"/>
      <use xlink:href="#DejaVuSans-73" x="514.791016"/>
     </g>
    </g>
   </g>
   <g id="patch_83">
    <path d="M 514.97528 19684.67465 
L 523.993865 19684.67465 
L 523.993865 105.523755 
L 514.97528 105.523755 
z
" clip-path="url(#p1c02f58b3d)" style="fill: #4c72b0"/>
   </g>
   <g id="patch_84">
    <path d="M 523.993865 19684.67465 
L 533.01245 19684.67465 
L 533.01245 19684.67465 
L 523.993865 19684.67465 
z
" clip-path="url(#p1c02f58b3d)" style="fill: #4c72b0"/>
   </g>
   <g id="patch_85">
    <path d="M 533.01245 19684.67465 
L 542.031035 19684.67465 
L 542.031035 99.629843 
L 533.01245 99.629843 
z
" clip-path="url(#p1c02f58b3d)" style="fill: #4c72b0"/>
   </g>
   <g id="patch_86">
    <path d="M 542.031035 19684.67465 
L 551.04962 19684.67465 
L 551.04962 90.288214 
L 542.031035 90.288214 
z
" clip-path="url(#p1c02f58b3d)" style="fill: #4c72b0"/>
   </g>
   <g id="patch_87">
    <path d="M 551.04962 19684.67465 
L 560.068206 19684.67465 
L 560.068206 81.948108 
L 551.04962 81.948108 
z
" clip-path="url(#p1c02f58b3d)" style="fill: #4c72b0"/>
   </g>
   <g id="patch_88">
    <path d="M 560.068206 19684.67465 
L 569.086791 19684.67465 
L 569.086791 85.944604 
L 560.068206 85.944604 
z
" clip-path="url(#p1c02f58b3d)" style="fill: #4c72b0"/>
   </g>
   <g id="patch_89">
    <path d="M 569.086791 19684.67465 
L 578.105376 19684.67465 
L 578.105376 75.292213 
L 569.086791 75.292213 
z
" clip-path="url(#p1c02f58b3d)" style="fill: #4c72b0"/>
   </g>
   <g id="patch_90">
    <path d="M 578.105376 19684.67465 
L 587.123961 19684.67465 
L 587.123961 71.763897 
L 578.105376 71.763897 
z
" clip-path="url(#p1c02f58b3d)" style="fill: #4c72b0"/>
   </g>
   <g id="patch_91">
    <path d="M 587.123961 19684.67465 
L 596.142546 19684.67465 
L 596.142546 65.251304 
L 587.123961 65.251304 
z
" clip-path="url(#p1c02f58b3d)" style="fill: #4c72b0"/>
   </g>
   <g id="patch_92">
    <path d="M 596.142546 19684.67465 
L 605.161131 19684.67465 
L 605.161131 59.470018 
L 596.142546 59.470018 
z
" clip-path="url(#p1c02f58b3d)" style="fill: #4c72b0"/>
   </g>
   <g id="patch_93">
    <path d="M 605.161131 19684.67465 
L 614.179717 19684.67465 
L 614.179717 53.444854 
L 605.161131 53.444854 
z
" clip-path="url(#p1c02f58b3d)" style="fill: #4c72b0"/>
   </g>
   <g id="patch_94">
    <path d="M 614.179717 19684.67465 
L 623.198302 19684.67465 
L 623.198302 48.50492 
L 614.179717 48.50492 
z
" clip-path="url(#p1c02f58b3d)" style="fill: #4c72b0"/>
   </g>
   <g id="patch_95">
    <path d="M 623.198302 19684.67465 
L 632.216887 19684.67465 
L 632.216887 43.626854 
L 623.198302 43.626854 
z
" clip-path="url(#p1c02f58b3d)" style="fill: #4c72b0"/>
   </g>
   <g id="patch_96">
    <path d="M 632.216887 19684.67465 
L 641.235472 19684.67465 
L 641.235472 39.145962 
L 632.216887 39.145962 
z
" clip-path="url(#p1c02f58b3d)" style="fill: #4c72b0"/>
   </g>
   <g id="patch_97">
    <path d="M 641.235472 19684.67465 
L 650.254057 19684.67465 
L 650.254057 36.78764 
L 641.235472 36.78764 
z
" clip-path="url(#p1c02f58b3d)" style="fill: #4c72b0"/>
   </g>
   <g id="patch_98">
    <path d="M 650.254057 19684.67465 
L 659.272643 19684.67465 
L 659.272643 37.484447 
L 650.254057 37.484447 
z
" clip-path="url(#p1c02f58b3d)" style="fill: #4c72b0"/>
   </g>
   <g id="patch_99">
    <path d="M 659.272643 19684.67465 
L 668.291228 19684.67465 
L 668.291228 42.425703 
L 659.272643 42.425703 
z
" clip-path="url(#p1c02f58b3d)" style="fill: #4c72b0"/>
   </g>
   <g id="patch_100">
    <path d="M 668.291228 19684.67465 
L 677.309813 19684.67465 
L 677.309813 51.536282 
L 668.291228 51.536282 
z
" clip-path="url(#p1c02f58b3d)" style="fill: #4c72b0"/>
   </g>
   <g id="patch_101">
    <path d="M 677.309813 19684.67465 
L 686.328398 19684.67465 
L 686.328398 66.801606 
L 677.309813 66.801606 
z
" clip-path="url(#p1c02f58b3d)" style="fill: #4c72b0"/>
   </g>
   <g id="patch_102">
    <path d="M 686.328398 19684.67465 
L 695.346983 19684.67465 
L 695.346983 88.977453 
L 686.328398 88.977453 
z
" clip-path="url(#p1c02f58b3d)" style="fill: #4c72b0"/>
   </g>
   <g id="patch_103">
    <path d="M 695.346983 19684.67465 
L 704.365568 19684.67465 
L 704.365568 105.523755 
L 695.346983 105.523755 
z
" clip-path="url(#p1c02f58b3d)" style="fill: #4c72b0"/>
   </g>
   <g id="patch_104">
    <path d="M 704.365568 19684.67465 
L 713.384154 19684.67465 
L 713.384154 105.523755 
L 704.365568 105.523755 
z
" clip-path="url(#p1c02f58b3d)" style="fill: #4c72b0"/>
   </g>
   <g id="patch_105">
    <path d="M 713.384154 19684.67465 
L 722.402739 19684.67465 
L 722.402739 99.629843 
L 713.384154 99.629843 
z
" clip-path="url(#p1c02f58b3d)" style="fill: #4c72b0"/>
   </g>
   <g id="patch_106">
    <path d="M 722.402739 19684.67465 
L 731.421324 19684.67465 
L 731.421324 19684.67465 
L 722.402739 19684.67465 
z
" clip-path="url(#p1c02f58b3d)" style="fill: #4c72b0"/>
   </g>
   <g id="patch_107">
    <path d="M 731.421324 19684.67465 
L 740.439909 19684.67465 
L 740.439909 105.523755 
L 731.421324 105.523755 
z
" clip-path="url(#p1c02f58b3d)" style="fill: #4c72b0"/>
   </g>
   <g id="patch_108">
    <path d="M 492.663766 19684.67465 
L 502.601849 19684.67465 
L 502.601849 105.523755 
L 492.663766 105.523755 
z
" clip-path="url(#p1c02f58b3d)" style="fill: #dd8452; opacity: 0.3"/>
   </g>
   <g id="patch_109">
    <path d="M 502.601849 19684.67465 
L 512.539932 19684.67465 
L 512.539932 19684.67465 
L 502.601849 19684.67465 
z
" clip-path="url(#p1c02f58b3d)" style="fill: #dd8452; opacity: 0.3"/>
   </g>
   <g id="patch_110">
    <path d="M 512.539932 19684.67465 
L 522.478014 19684.67465 
L 522.478014 96.182126 
L 512.539932 96.182126 
z
" clip-path="url(#p1c02f58b3d)" style="fill: #dd8452; opacity: 0.3"/>
   </g>
   <g id="patch_111">
    <path d="M 522.478014 19684.67465 
L 532.416097 19684.67465 
L 532.416097 83.71369 
L 522.478014 83.71369 
z
" clip-path="url(#p1c02f58b3d)" style="fill: #dd8452; opacity: 0.3"/>
   </g>
   <g id="patch_112">
    <path d="M 532.416097 19684.67465 
L 542.35418 19684.67465 
L 542.35418 85.13417 
L 532.416097 85.13417 
z
" clip-path="url(#p1c02f58b3d)" style="fill: #dd8452; opacity: 0.3"/>
   </g>
   <g id="patch_113">
    <path d="M 542.35418 19684.67465 
L 552.292262 19684.67465 
L 552.292262 78.86228 
L 542.35418 78.86228 
z
" clip-path="url(#p1c02f58b3d)" style="fill: #dd8452; opacity: 0.3"/>
   </g>
   <g id="patch_114">
    <path d="M 552.292262 19684.67465 
L 562.230345 19684.67465 
L 562.230345 71.295718 
L 552.292262 71.295718 
z
" clip-path="url(#p1c02f58b3d)" style="fill: #dd8452; opacity: 0.3"/>
   </g>
   <g id="patch_115">
    <path d="M 562.230345 19684.67465 
L 572.168428 19684.67465 
L 572.168428 65.632674 
L 562.230345 65.632674 
z
" clip-path="url(#p1c02f58b3d)" style="fill: #dd8452; opacity: 0.3"/>
   </g>
   <g id="patch_116">
    <path d="M 572.168428 19684.67465 
L 582.10651 19684.67465 
L 582.10651 59.85659 
L 572.168428 59.85659 
z
" clip-path="url(#p1c02f58b3d)" style="fill: #dd8452; opacity: 0.3"/>
   </g>
   <g id="patch_117">
    <path d="M 582.10651 19684.67465 
L 592.044593 19684.67465 
L 592.044593 52.646269 
L 582.10651 52.646269 
z
" clip-path="url(#p1c02f58b3d)" style="fill: #dd8452; opacity: 0.3"/>
   </g>
   <g id="patch_118">
    <path d="M 592.044593 19684.67465 
L 601.982676 19684.67465 
L 601.982676 47.258333 
L 592.044593 47.258333 
z
" clip-path="url(#p1c02f58b3d)" style="fill: #dd8452; opacity: 0.3"/>
   </g>
   <g id="patch_119">
    <path d="M 601.982676 19684.67465 
L 611.920758 19684.67465 
L 611.920758 42.013259 
L 601.982676 42.013259 
z
" clip-path="url(#p1c02f58b3d)" style="fill: #dd8452; opacity: 0.3"/>
   </g>
   <g id="patch_120">
    <path d="M 611.920758 19684.67465 
L 621.858841 19684.67465 
L 621.858841 37.830256 
L 611.920758 37.830256 
z
" clip-path="url(#p1c02f58b3d)" style="fill: #dd8452; opacity: 0.3"/>
   </g>
   <g id="patch_121">
    <path d="M 621.858841 19684.67465 
L 631.796924 19684.67465 
L 631.796924 36.41046 
L 621.858841 36.41046 
z
" clip-path="url(#p1c02f58b3d)" style="fill: #dd8452; opacity: 0.3"/>
   </g>
   <g id="patch_122">
    <path d="M 631.796924 19684.67465 
L 641.735006 19684.67465 
L 641.735006 38.541323 
L 631.796924 38.541323 
z
" clip-path="url(#p1c02f58b3d)" style="fill: #dd8452; opacity: 0.3"/>
   </g>
   <g id="patch_123">
    <path d="M 641.735006 19684.67465 
L 651.673089 19684.67465 
L 651.673089 44.868503 
L 641.735006 44.868503 
z
" clip-path="url(#p1c02f58b3d)" style="fill: #dd8452; opacity: 0.3"/>
   </g>
   <g id="patch_124">
    <path d="M 651.673089 19684.67465 
L 661.611172 19684.67465 
L 661.611172 55.761791 
L 651.673089 55.761791 
z
" clip-path="url(#p1c02f58b3d)" style="fill: #dd8452; opacity: 0.3"/>
   </g>
   <g id="patch_125">
    <path d="M 661.611172 19684.67465 
L 671.549254 19684.67465 
L 671.549254 68.811647 
L 661.611172 68.811647 
z
" clip-path="url(#p1c02f58b3d)" style="fill: #dd8452; opacity: 0.3"/>
   </g>
   <g id="patch_126">
    <path d="M 671.549254 19684.67465 
L 681.487337 19684.67465 
L 681.487337 85.13417 
L 671.549254 85.13417 
z
" clip-path="url(#p1c02f58b3d)" style="fill: #dd8452; opacity: 0.3"/>
   </g>
   <g id="patch_127">
    <path d="M 681.487337 19684.67465 
L 691.42542 19684.67465 
L 691.42542 96.182126 
L 681.487337 96.182126 
z
" clip-path="url(#p1c02f58b3d)" style="fill: #dd8452; opacity: 0.3"/>
   </g>
   <g id="patch_128">
    <path d="M 691.42542 19684.67465 
L 701.363502 19684.67465 
L 701.363502 19684.67465 
L 691.42542 19684.67465 
z
" clip-path="url(#p1c02f58b3d)" style="fill: #dd8452; opacity: 0.3"/>
   </g>
   <g id="patch_129">
    <path d="M 701.363502 19684.67465 
L 711.301585 19684.67465 
L 711.301585 105.523755 
L 701.363502 105.523755 
z
" clip-path="url(#p1c02f58b3d)" style="fill: #dd8452; opacity: 0.3"/>
   </g>
   <g id="patch_130">
    <path d="M 711.301585 19684.67465 
L 721.239668 19684.67465 
L 721.239668 99.629843 
L 711.301585 99.629843 
z
" clip-path="url(#p1c02f58b3d)" style="fill: #dd8452; opacity: 0.3"/>
   </g>
   <g id="patch_131">
    <path d="M 721.239668 19684.67465 
L 731.177751 19684.67465 
L 731.177751 19684.67465 
L 721.239668 19684.67465 
z
" clip-path="url(#p1c02f58b3d)" style="fill: #dd8452; opacity: 0.3"/>
   </g>
   <g id="patch_132">
    <path d="M 731.177751 19684.67465 
L 741.115833 19684.67465 
L 741.115833 105.523755 
L 731.177751 105.523755 
z
" clip-path="url(#p1c02f58b3d)" style="fill: #dd8452; opacity: 0.3"/>
   </g>
   <g id="patch_133">
    <path d="M 630.759008 19684.67465 
L 636.303636 19684.67465 
L 636.303636 93.735931 
L 630.759008 93.735931 
z
" clip-path="url(#p1c02f58b3d)" style="fill: #c44e52; opacity: 0.3"/>
   </g>
   <g id="patch_134">
    <path d="M 636.303636 19684.67465 
L 641.848265 19684.67465 
L 641.848265 96.182126 
L 636.303636 96.182126 
z
" clip-path="url(#p1c02f58b3d)" style="fill: #c44e52; opacity: 0.3"/>
   </g>
   <g id="patch_135">
    <path d="M 641.848265 19684.67465 
L 647.392893 19684.67465 
L 647.392893 105.523755 
L 641.848265 105.523755 
z
" clip-path="url(#p1c02f58b3d)" style="fill: #c44e52; opacity: 0.3"/>
   </g>
   <g id="patch_136">
    <path d="M 647.392893 19684.67465 
L 652.937521 19684.67465 
L 652.937521 19684.67465 
L 647.392893 19684.67465 
z
" clip-path="url(#p1c02f58b3d)" style="fill: #c44e52; opacity: 0.3"/>
   </g>
   <g id="patch_137">
    <path d="M 652.937521 19684.67465 
L 658.48215 19684.67465 
L 658.48215 19684.67465 
L 652.937521 19684.67465 
z
" clip-path="url(#p1c02f58b3d)" style="fill: #c44e52; opacity: 0.3"/>
   </g>
   <g id="patch_138">
    <path d="M 658.48215 19684.67465 
L 664.026778 19684.67465 
L 664.026778 88.977453 
L 658.48215 88.977453 
z
" clip-path="url(#p1c02f58b3d)" style="fill: #c44e52; opacity: 0.3"/>
   </g>
   <g id="patch_139">
    <path d="M 664.026778 19684.67465 
L 669.571407 19684.67465 
L 669.571407 93.735931 
L 664.026778 93.735931 
z
" clip-path="url(#p1c02f58b3d)" style="fill: #c44e52; opacity: 0.3"/>
   </g>
   <g id="patch_140">
    <path d="M 669.571407 19684.67465 
L 675.116035 19684.67465 
L 675.116035 99.629843 
L 669.571407 99.629843 
z
" clip-path="url(#p1c02f58b3d)" style="fill: #c44e52; opacity: 0.3"/>
   </g>
   <g id="patch_141">
    <path d="M 675.116035 19684.67465 
L 680.660663 19684.67465 
L 680.660663 93.735931 
L 675.116035 93.735931 
z
" clip-path="url(#p1c02f58b3d)" style="fill: #c44e52; opacity: 0.3"/>
   </g>
   <g id="patch_142">
    <path d="M 680.660663 19684.67465 
L 686.205292 19684.67465 
L 686.205292 93.735931 
L 680.660663 93.735931 
z
" clip-path="url(#p1c02f58b3d)" style="fill: #c44e52; opacity: 0.3"/>
   </g>
   <g id="patch_143">
    <path d="M 686.205292 19684.67465 
L 691.74992 19684.67465 
L 691.74992 88.977453 
L 686.205292 88.977453 
z
" clip-path="url(#p1c02f58b3d)" style="fill: #c44e52; opacity: 0.3"/>
   </g>
   <g id="patch_144">
    <path d="M 691.74992 19684.67465 
L 697.294549 19684.67465 
L 697.294549 96.182126 
L 691.74992 96.182126 
z
" clip-path="url(#p1c02f58b3d)" style="fill: #c44e52; opacity: 0.3"/>
   </g>
   <g id="patch_145">
    <path d="M 697.294549 19684.67465 
L 702.839177 19684.67465 
L 702.839177 19684.67465 
L 697.294549 19684.67465 
z
" clip-path="url(#p1c02f58b3d)" style="fill: #c44e52; opacity: 0.3"/>
   </g>
   <g id="patch_146">
    <path d="M 702.839177 19684.67465 
L 708.383805 19684.67465 
L 708.383805 99.629843 
L 702.839177 99.629843 
z
" clip-path="url(#p1c02f58b3d)" style="fill: #c44e52; opacity: 0.3"/>
   </g>
   <g id="patch_147">
    <path d="M 708.383805 19684.67465 
L 713.928434 19684.67465 
L 713.928434 91.838516 
L 708.383805 91.838516 
z
" clip-path="url(#p1c02f58b3d)" style="fill: #c44e52; opacity: 0.3"/>
   </g>
   <g id="patch_148">
    <path d="M 713.928434 19684.67465 
L 719.473062 19684.67465 
L 719.473062 105.523755 
L 713.928434 105.523755 
z
" clip-path="url(#p1c02f58b3d)" style="fill: #c44e52; opacity: 0.3"/>
   </g>
   <g id="patch_149">
    <path d="M 719.473062 19684.67465 
L 725.017691 19684.67465 
L 725.017691 96.182126 
L 719.473062 96.182126 
z
" clip-path="url(#p1c02f58b3d)" style="fill: #c44e52; opacity: 0.3"/>
   </g>
   <g id="patch_150">
    <path d="M 725.017691 19684.67465 
L 730.562319 19684.67465 
L 730.562319 96.182126 
L 725.017691 96.182126 
z
" clip-path="url(#p1c02f58b3d)" style="fill: #c44e52; opacity: 0.3"/>
   </g>
   <g id="patch_151">
    <path d="M 730.562319 19684.67465 
L 736.106947 19684.67465 
L 736.106947 96.182126 
L 730.562319 96.182126 
z
" clip-path="url(#p1c02f58b3d)" style="fill: #c44e52; opacity: 0.3"/>
   </g>
   <g id="patch_152">
    <path d="M 736.106947 19684.67465 
L 741.651576 19684.67465 
L 741.651576 105.523755 
L 736.106947 105.523755 
z
" clip-path="url(#p1c02f58b3d)" style="fill: #c44e52; opacity: 0.3"/>
   </g>
   <g id="patch_153">
    <path d="M 741.651576 19684.67465 
L 747.196204 19684.67465 
L 747.196204 105.523755 
L 741.651576 105.523755 
z
" clip-path="url(#p1c02f58b3d)" style="fill: #c44e52; opacity: 0.3"/>
   </g>
   <g id="patch_154">
    <path d="M 747.196204 19684.67465 
L 752.740833 19684.67465 
L 752.740833 90.288214 
L 747.196204 90.288214 
z
" clip-path="url(#p1c02f58b3d)" style="fill: #c44e52; opacity: 0.3"/>
   </g>
   <g id="patch_155">
    <path d="M 752.740833 19684.67465 
L 758.285461 19684.67465 
L 758.285461 86.840497 
L 752.740833 86.840497 
z
" clip-path="url(#p1c02f58b3d)" style="fill: #c44e52; opacity: 0.3"/>
   </g>
   <g id="patch_156">
    <path d="M 758.285461 19684.67465 
L 763.83009 19684.67465 
L 763.83009 81.948108 
L 758.285461 81.948108 
z
" clip-path="url(#p1c02f58b3d)" style="fill: #c44e52; opacity: 0.3"/>
   </g>
   <g id="patch_157">
    <path d="M 763.83009 19684.67465 
L 769.374718 19684.67465 
L 769.374718 72.259365 
L 763.83009 72.259365 
z
" clip-path="url(#p1c02f58b3d)" style="fill: #c44e52; opacity: 0.3"/>
   </g>
   <g id="line2d_23">
    <path d="M 725.530859 152.2 
L 725.530859 -1 
" clip-path="url(#p1c02f58b3d)" style="fill: none; stroke: #55a868; stroke-width: 1.5; stroke-linecap: round"/>
   </g>
   <g id="line2d_24">
    <path d="M 652.902169 152.2 
L 652.902169 -1 
" clip-path="url(#p1c02f58b3d)" style="fill: none; stroke: #1a1a1a; stroke-width: 1.5; stroke-linecap: round"/>
   </g>
   <g id="patch_158">
    <path d="M 486.18 111.3975 
L 486.18 30.24 
" style="fill: none; stroke: #ffffff; stroke-width: 1.25; stroke-linejoin: miter; stroke-linecap: square"/>
   </g>
   <g id="patch_159">
    <path d="M 864 111.3975 
L 864 30.24 
" style="fill: none; stroke: #ffffff; stroke-width: 1.25; stroke-linejoin: miter; stroke-linecap: square"/>
   </g>
   <g id="patch_160">
    <path d="M 486.18 111.3975 
L 864 111.3975 
" style="fill: none; stroke: #ffffff; stroke-width: 1.25; stroke-linejoin: miter; stroke-linecap: square"/>
   </g>
   <g id="patch_161">
    <path d="M 486.18 30.24 
L 864 30.24 
" style="fill: none; stroke: #ffffff; stroke-width: 1.25; stroke-linejoin: miter; stroke-linecap: square"/>
   </g>
   <g id="text_26">
    <!-- MAE=0.00020 -->
    <g style="fill: #262626" transform="translate(652.902169 38.994975) scale(0.12 -0.12)">
     <use xlink:href="#DejaVuSans-4d"/>
     <use xlink:href="#DejaVuSans-41" x="86.279297"/>
     <use xlink:href="#DejaVuSans-45" x="154.6875"/>
     <use xlink:href="#DejaVuSans-3d" x="217.871094"/>
     <use xlink:href="#DejaVuSans-30" x="301.660156"/>
     <use xlink:href="#DejaVuSans-2e" x="365.283203"/>
     <use xlink:href="#DejaVuSans-30" x="397.070312"/>
     <use xlink:href="#DejaVuSans-30" x="460.693359"/>
     <use xlink:href="#DejaVuSans-30" x="524.316406"/>
     <use xlink:href="#DejaVuSans-32" x="587.939453"/>
     <use xlink:href="#DejaVuSans-30" x="651.5625"/>
    </g>
   </g>
   <g id="legend_1">
    <g id="patch_162">
     <path d="M 74.579375 27.676725 
L 746.652625 27.676725 
Q 748.651825 27.676725 748.651825 25.677525 
L 748.651825 4.486005 
Q 748.651825 2.486805 746.652625 2.486805 
L 74.579375 2.486805 
Q 72.580175 2.486805 72.580175 4.486005 
L 72.580175 25.677525 
Q 72.580175 27.676725 74.579375 27.676725 
z
" style="fill: #eaeaf2; opacity: 0.8; stroke: #cccccc; stroke-linejoin: miter"/>
    </g>
    <g id="patch_163">
     <path d="M 76.578575 17.880645 
L 96.570575 17.880645 
L 96.570575 10.883445 
L 76.578575 10.883445 
z
" style="fill: #4c72b0"/>
    </g>
    <g id="text_27">
     <!-- Converged |us-pyscf| -->
     <g style="fill: #262626" transform="translate(104.567375 17.880645) scale(0.09996 -0.09996)">
      <defs>
       <path id="DejaVuSans-43" d="M 4122 4306 
L 4122 3641 
Q 3803 3938 3442 4084 
Q 3081 4231 2675 4231 
Q 1875 4231 1450 3742 
Q 1025 3253 1025 2328 
Q 1025 1406 1450 917 
Q 1875 428 2675 428 
Q 3081 428 3442 575 
Q 3803 722 4122 1019 
L 4122 359 
Q 3791 134 3420 21 
Q 3050 -91 2638 -91 
Q 1578 -91 968 557 
Q 359 1206 359 2328 
Q 359 3453 968 4101 
Q 1578 4750 2638 4750 
Q 3056 4750 3426 4639 
Q 3797 4528 4122 4306 
z
" transform="scale(0.015625)"/>
       <path id="DejaVuSans-76" d="M 191 3500 
L 800 3500 
L 1894 563 
L 2988 3500 
L 3597 3500 
L 2284 0 
L 1503 0 
L 191 3500 
z
" transform="scale(0.015625)"/>
       <path id="DejaVuSans-64" d="M 2906 2969 
L 2906 4863 
L 3481 4863 
L 3481 0 
L 2906 0 
L 2906 525 
Q 2725 213 2448 61 
Q 2172 -91 1784 -91 
Q 1150 -91 751 415 
Q 353 922 353 1747 
Q 353 2572 751 3078 
Q 1150 3584 1784 3584 
Q 2172 3584 2448 3432 
Q 2725 3281 2906 2969 
z
M 947 1747 
Q 947 1113 1208 752 
Q 1469 391 1925 391 
Q 2381 391 2643 752 
Q 2906 1113 2906 1747 
Q 2906 2381 2643 2742 
Q 2381 3103 1925 3103 
Q 1469 3103 1208 2742 
Q 947 2381 947 1747 
z
" transform="scale(0.015625)"/>
      </defs>
      <use xlink:href="#DejaVuSans-43"/>
      <use xlink:href="#DejaVuSans-6f" x="69.824219"/>
      <use xlink:href="#DejaVuSans-6e" x="131.005859"/>
      <use xlink:href="#DejaVuSans-76" x="194.384766"/>
      <use xlink:href="#DejaVuSans-65" x="253.564453"/>
      <use xlink:href="#DejaVuSans-72" x="315.087891"/>
      <use xlink:href="#DejaVuSans-67" x="354.451172"/>
      <use xlink:href="#DejaVuSans-65" x="417.927734"/>
      <use xlink:href="#DejaVuSans-64" x="479.451172"/>
      <use xlink:href="#DejaVuSans-20" x="542.927734"/>
      <use xlink:href="#DejaVuSans-7c" x="574.714844"/>
      <use xlink:href="#DejaVuSans-75" x="608.40625"/>
      <use xlink:href="#DejaVuSans-73" x="671.785156"/>
      <use xlink:href="#DejaVuSans-2d" x="723.884766"/>
      <use xlink:href="#DejaVuSans-70" x="759.96875"/>
      <use xlink:href="#DejaVuSans-79" x="823.445312"/>
      <use xlink:href="#DejaVuSans-73" x="882.625"/>
      <use xlink:href="#DejaVuSans-63" x="934.724609"/>
      <use xlink:href="#DejaVuSans-66" x="989.705078"/>
      <use xlink:href="#DejaVuSans-7c" x="1024.910156"/>
     </g>
    </g>
    <g id="patch_164">
     <path d="M 230.37953 17.880645 
L 250.37153 17.880645 
L 250.37153 10.883445 
L 230.37953 10.883445 
z
" style="fill: #dd8452; opacity: 0.3"/>
    </g>
    <g id="text_28">
     <!-- Converged $\frac{|us-pyscf|}{|pyscf|}$ -->
     <g style="fill: #262626" transform="translate(258.36833 17.880645) scale(0.09996 -0.09996)">
      <defs>
       <path id="DejaVuSans-Oblique-75" d="M 428 1388 
L 838 3500 
L 1416 3500 
L 1006 1409 
Q 975 1256 961 1147 
Q 947 1038 947 966 
Q 947 700 1109 554 
Q 1272 409 1569 409 
Q 2031 409 2368 721 
Q 2706 1034 2809 1563 
L 3194 3500 
L 3769 3500 
L 3091 0 
L 2516 0 
L 2631 550 
Q 2388 244 2052 76 
Q 1716 -91 1338 -91 
Q 878 -91 622 161 
Q 366 413 366 863 
Q 366 956 381 1097 
Q 397 1238 428 1388 
z
" transform="scale(0.015625)"/>
       <path id="DejaVuSans-Oblique-73" d="M 3200 3397 
L 3091 2853 
Q 2863 2978 2609 3040 
Q 2356 3103 2088 3103 
Q 1634 3103 1373 2948 
Q 1113 2794 1113 2528 
Q 1113 2219 1719 2053 
Q 1766 2041 1788 2034 
L 1972 1978 
Q 2547 1819 2739 1644 
Q 2931 1469 2931 1166 
Q 2931 609 2489 259 
Q 2047 -91 1331 -91 
Q 1053 -91 747 -37 
Q 441 16 72 128 
L 184 722 
Q 500 559 806 475 
Q 1113 391 1394 391 
Q 1816 391 2080 572 
Q 2344 753 2344 1031 
Q 2344 1331 1650 1516 
L 1591 1531 
L 1394 1581 
Q 956 1697 753 1886 
Q 550 2075 550 2369 
Q 550 2928 970 3256 
Q 1391 3584 2113 3584 
Q 2397 3584 2667 3537 
Q 2938 3491 3200 3397 
z
" transform="scale(0.015625)"/>
       <path id="DejaVuSans-Oblique-70" d="M 3175 2156 
Q 3175 2616 2975 2859 
Q 2775 3103 2400 3103 
Q 2144 3103 1911 2972 
Q 1678 2841 1497 2591 
Q 1319 2344 1212 1994 
Q 1106 1644 1106 1300 
Q 1106 863 1306 627 
Q 1506 391 1875 391 
Q 2147 391 2380 519 
Q 2613 647 2778 891 
Q 2956 1147 3065 1494 
Q 3175 1841 3175 2156 
z
M 1394 2969 
Q 1625 3272 1939 3428 
Q 2253 3584 2638 3584 
Q 3175 3584 3472 3232 
Q 3769 2881 3769 2247 
Q 3769 1728 3584 1258 
Q 3400 788 3053 416 
Q 2822 169 2531 39 
Q 2241 -91 1919 -91 
Q 1547 -91 1294 64 
Q 1041 219 916 525 
L 556 -1331 
L -19 -1331 
L 922 3500 
L 1497 3500 
L 1394 2969 
z
" transform="scale(0.015625)"/>
       <path id="DejaVuSans-Oblique-79" d="M 1588 -325 
Q 1188 -997 936 -1164 
Q 684 -1331 294 -1331 
L -159 -1331 
L -63 -850 
L 269 -850 
Q 509 -850 678 -719 
Q 847 -588 1056 -206 
L 1234 128 
L 459 3500 
L 1069 3500 
L 1650 819 
L 3256 3500 
L 3859 3500 
L 1588 -325 
z
" transform="scale(0.015625)"/>
       <path id="DejaVuSans-Oblique-63" d="M 3431 3366 
L 3316 2797 
Q 3109 2947 2876 3022 
Q 2644 3097 2394 3097 
Q 2119 3097 1870 3000 
Q 1622 2903 1453 2725 
Q 1184 2453 1037 2087 
Q 891 1722 891 1331 
Q 891 859 1127 628 
Q 1363 397 1844 397 
Q 2081 397 2348 469 
Q 2616 541 2906 684 
L 2797 116 
Q 2547 13 2283 -39 
Q 2019 -91 1741 -91 
Q 1044 -91 669 257 
Q 294 606 294 1253 
Q 294 1797 489 2255 
Q 684 2713 1069 3078 
Q 1331 3328 1684 3456 
Q 2038 3584 2456 3584 
Q 2700 3584 2940 3529 
Q 3181 3475 3431 3366 
z
" transform="scale(0.015625)"/>
       <path id="DejaVuSans-Oblique-66" d="M 3059 4863 
L 2969 4384 
L 2419 4384 
Q 2106 4384 1964 4261 
Q 1822 4138 1753 3809 
L 1691 3500 
L 2638 3500 
L 2553 3053 
L 1606 3053 
L 1013 0 
L 434 0 
L 1031 3053 
L 481 3053 
L 563 3500 
L 1113 3500 
L 1159 3744 
Q 1278 4363 1576 4613 
Q 1875 4863 2516 4863 
L 3059 4863 
z
" transform="scale(0.015625)"/>
      </defs>
      <use xlink:href="#DejaVuSans-43" transform="translate(0 0.203125)"/>
      <use xlink:href="#DejaVuSans-6f" transform="translate(69.824219 0.203125)"/>
      <use xlink:href="#DejaVuSans-6e" transform="translate(131.005859 0.203125)"/>
      <use xlink:href="#DejaVuSans-76" transform="translate(194.384766 0.203125)"/>
      <use xlink:href="#DejaVuSans-65" transform="translate(253.564453 0.203125)"/>
      <use xlink:href="#DejaVuSans-72" transform="translate(315.087891 0.203125)"/>
      <use xlink:href="#DejaVuSans-67" transform="translate(356.201172 0.203125)"/>
      <use xlink:href="#DejaVuSans-65" transform="translate(419.677734 0.203125)"/>
      <use xlink:href="#DejaVuSans-64" transform="translate(481.201172 0.203125)"/>
      <use xlink:href="#DejaVuSans-20" transform="translate(544.677734 0.203125)"/>
      <use xlink:href="#DejaVuSans-7c" transform="translate(576.464844 60.504688) scale(0.7)"/>
      <use xlink:href="#DejaVuSans-Oblique-75" transform="translate(600.048828 60.504688) scale(0.7)"/>
      <use xlink:href="#DejaVuSans-Oblique-73" transform="translate(644.414062 60.504688) scale(0.7)"/>
      <use xlink:href="#DejaVuSans-2212" transform="translate(694.521484 60.504688) scale(0.7)"/>
      <use xlink:href="#DejaVuSans-Oblique-70" transform="translate(766.811523 60.504688) scale(0.7)"/>
      <use xlink:href="#DejaVuSans-Oblique-79" transform="translate(811.245117 60.504688) scale(0.7)"/>
      <use xlink:href="#DejaVuSans-Oblique-73" transform="translate(852.670898 60.504688) scale(0.7)"/>
      <use xlink:href="#DejaVuSans-Oblique-63" transform="translate(889.140625 60.504688) scale(0.7)"/>
      <use xlink:href="#DejaVuSans-Oblique-66" transform="translate(927.626953 60.504688) scale(0.7)"/>
      <use xlink:href="#DejaVuSans-7c" transform="translate(952.270508 60.504688) scale(0.7)"/>
      <use xlink:href="#DejaVuSans-7c" transform="translate(659.464844 -40.745313) scale(0.7)"/>
      <use xlink:href="#DejaVuSans-Oblique-70" transform="translate(683.048828 -40.745313) scale(0.7)"/>
      <use xlink:href="#DejaVuSans-Oblique-79" transform="translate(727.482422 -40.745313) scale(0.7)"/>
      <use xlink:href="#DejaVuSans-Oblique-73" transform="translate(768.908203 -40.745313) scale(0.7)"/>
      <use xlink:href="#DejaVuSans-Oblique-63" transform="translate(805.37793 -40.745313) scale(0.7)"/>
      <use xlink:href="#DejaVuSans-Oblique-66" transform="translate(843.864258 -40.745313) scale(0.7)"/>
      <use xlink:href="#DejaVuSans-7c" transform="translate(868.507812 -40.745313) scale(0.7)"/>
      <path d="M 576.464844 19 
L 576.464844 25.25 
L 975.854492 25.25 
L 975.854492 19 
L 576.464844 19 
z
"/>
     </g>
    </g>
    <g id="line2d_25">
     <path d="M 377.22077 14.382045 
L 387.21677 14.382045 
L 397.21277 14.382045 
" style="fill: none; stroke: #55a868; stroke-width: 1.5; stroke-linecap: round"/>
    </g>
    <g id="text_29">
     <!-- Chemical Accuracy -->
     <g style="fill: #262626" transform="translate(405.20957 17.880645) scale(0.09996 -0.09996)">
      <defs>
       <path id="DejaVuSans-6d" d="M 3328 2828 
Q 3544 3216 3844 3400 
Q 4144 3584 4550 3584 
Q 5097 3584 5394 3201 
Q 5691 2819 5691 2113 
L 5691 0 
L 5113 0 
L 5113 2094 
Q 5113 2597 4934 2840 
Q 4756 3084 4391 3084 
Q 3944 3084 3684 2787 
Q 3425 2491 3425 1978 
L 3425 0 
L 2847 0 
L 2847 2094 
Q 2847 2600 2669 2842 
Q 2491 3084 2119 3084 
Q 1678 3084 1418 2786 
Q 1159 2488 1159 1978 
L 1159 0 
L 581 0 
L 581 3500 
L 1159 3500 
L 1159 2956 
Q 1356 3278 1631 3431 
Q 1906 3584 2284 3584 
Q 2666 3584 2933 3390 
Q 3200 3197 3328 2828 
z
" transform="scale(0.015625)"/>
       <path id="DejaVuSans-69" d="M 603 3500 
L 1178 3500 
L 1178 0 
L 603 0 
L 603 3500 
z
M 603 4863 
L 1178 4863 
L 1178 4134 
L 603 4134 
L 603 4863 
z
" transform="scale(0.015625)"/>
      </defs>
      <use xlink:href="#DejaVuSans-43"/>
      <use xlink:href="#DejaVuSans-68" x="69.824219"/>
      <use xlink:href="#DejaVuSans-65" x="133.203125"/>
      <use xlink:href="#DejaVuSans-6d" x="194.726562"/>
      <use xlink:href="#DejaVuSans-69" x="292.138672"/>
      <use xlink:href="#DejaVuSans-63" x="319.921875"/>
      <use xlink:href="#DejaVuSans-61" x="374.902344"/>
      <use xlink:href="#DejaVuSans-6c" x="436.181641"/>
      <use xlink:href="#DejaVuSans-20" x="463.964844"/>
      <use xlink:href="#DejaVuSans-41" x="495.751953"/>
      <use xlink:href="#DejaVuSans-63" x="562.410156"/>
      <use xlink:href="#DejaVuSans-63" x="617.390625"/>
      <use xlink:href="#DejaVuSans-75" x="672.371094"/>
      <use xlink:href="#DejaVuSans-72" x="735.75"/>
      <use xlink:href="#DejaVuSans-61" x="776.863281"/>
      <use xlink:href="#DejaVuSans-63" x="838.142578"/>
      <use xlink:href="#DejaVuSans-79" x="893.123047"/>
     </g>
    </g>
    <g id="line2d_26">
     <path d="M 520.394727 14.382045 
L 530.390727 14.382045 
L 540.386727 14.382045 
" style="fill: none; stroke: #1a1a1a; stroke-width: 1.5; stroke-linecap: round"/>
    </g>
    <g id="text_30">
     <!-- MAE -->
     <g style="fill: #262626" transform="translate(548.383527 17.880645) scale(0.09996 -0.09996)">
      <use xlink:href="#DejaVuSans-4d"/>
      <use xlink:href="#DejaVuSans-41" x="86.279297"/>
      <use xlink:href="#DejaVuSans-45" x="154.6875"/>
     </g>
    </g>
    <g id="patch_165">
     <path d="M 590.154312 17.880645 
L 610.146312 17.880645 
L 610.146312 10.883445 
L 590.154312 10.883445 
z
" style="fill: #c44e52; opacity: 0.3"/>
    </g>
    <g id="text_31">
     <!-- Not Converged |us-pyscf| -->
     <g style="fill: #262626" transform="translate(618.143112 17.880645) scale(0.09996 -0.09996)">
      <defs>
       <path id="DejaVuSans-4e" d="M 628 4666 
L 1478 4666 
L 3547 763 
L 3547 4666 
L 4159 4666 
L 4159 0 
L 3309 0 
L 1241 3903 
L 1241 0 
L 628 0 
L 628 4666 
z
" transform="scale(0.015625)"/>
       <path id="DejaVuSans-74" d="M 1172 4494 
L 1172 3500 
L 2356 3500 
L 2356 3053 
L 1172 3053 
L 1172 1153 
Q 1172 725 1289 603 
Q 1406 481 1766 481 
L 2356 481 
L 2356 0 
L 1766 0 
Q 1100 0 847 248 
Q 594 497 594 1153 
L 594 3053 
L 172 3053 
L 172 3500 
L 594 3500 
L 594 4494 
L 1172 4494 
z
" transform="scale(0.015625)"/>
      </defs>
      <use xlink:href="#DejaVuSans-4e"/>
      <use xlink:href="#DejaVuSans-6f" x="74.804688"/>
      <use xlink:href="#DejaVuSans-74" x="135.986328"/>
      <use xlink:href="#DejaVuSans-20" x="175.195312"/>
      <use xlink:href="#DejaVuSans-43" x="206.982422"/>
      <use xlink:href="#DejaVuSans-6f" x="276.806641"/>
      <use xlink:href="#DejaVuSans-6e" x="337.988281"/>
      <use xlink:href="#DejaVuSans-76" x="401.367188"/>
      <use xlink:href="#DejaVuSans-65" x="460.546875"/>
      <use xlink:href="#DejaVuSans-72" x="522.070312"/>
      <use xlink:href="#DejaVuSans-67" x="561.433594"/>
      <use xlink:href="#DejaVuSans-65" x="624.910156"/>
      <use xlink:href="#DejaVuSans-64" x="686.433594"/>
      <use xlink:href="#DejaVuSans-20" x="749.910156"/>
      <use xlink:href="#DejaVuSans-7c" x="781.697266"/>
      <use xlink:href="#DejaVuSans-75" x="815.388672"/>
      <use xlink:href="#DejaVuSans-73" x="878.767578"/>
      <use xlink:href="#DejaVuSans-2d" x="930.867188"/>
      <use xlink:href="#DejaVuSans-70" x="966.951172"/>
      <use xlink:href="#DejaVuSans-79" x="1030.427734"/>
      <use xlink:href="#DejaVuSans-73" x="1089.607422"/>
      <use xlink:href="#DejaVuSans-63" x="1141.707031"/>
      <use xlink:href="#DejaVuSans-66" x="1196.6875"/>
      <use xlink:href="#DejaVuSans-7c" x="1231.892578"/>
     </g>
    </g>
   </g>
  </g>
 </g>
 <defs>
  <clipPath id="p0a9f447f97">
   <rect x="54.18" y="30.24" width="377.82" height="81.1575"/>
  </clipPath>
  <clipPath id="p1c02f58b3d">
   <rect x="486.18" y="30.24" width="377.82" height="81.1575"/>
  </clipPath>
 </defs>
</svg>
